<?xml version="1.0" encoding="utf-8" standalone="no"?>
<!DOCTYPE svg PUBLIC "-//W3C//DTD SVG 1.1//EN"
  "http://www.w3.org/Graphics/SVG/1.1/DTD/svg11.dtd">
<svg xmlns:xlink="http://www.w3.org/1999/xlink" width="432pt" height="288pt" viewBox="0 0 432 288" xmlns="http://www.w3.org/2000/svg" version="1.1">
 <metadata>
  <rdf:RDF xmlns:dc="http://purl.org/dc/elements/1.1/" xmlns:cc="http://creativecommons.org/ns#" xmlns:rdf="http://www.w3.org/1999/02/22-rdf-syntax-ns#">
   <cc:Work>
    <dc:type rdf:resource="http://purl.org/dc/dcmitype/StillImage"/>
    <dc:date>2022-06-27T11:56:46.040766</dc:date>
    <dc:format>image/svg+xml</dc:format>
    <dc:creator>
     <cc:Agent>
      <dc:title>Matplotlib v3.5.2, https://matplotlib.org/</dc:title>
     </cc:Agent>
    </dc:creator>
   </cc:Work>
  </rdf:RDF>
 </metadata>
 <defs>
  <style type="text/css">*{stroke-linejoin: round; stroke-linecap: butt}</style>
 </defs>
 <g id="figure_1">
  <g id="patch_1">
   <path d="M 0 288 
L 432 288 
L 432 0 
L 0 0 
z
" style="fill: #ffffff"/>
  </g>
  <g id="axes_1">
   <g id="patch_2">
    <path d="M 54 252 
L 388.8 252 
L 388.8 34.56 
L 54 34.56 
z
" style="fill: #ffffff"/>
   </g>
   <g id="matplotlib.axis_1">
    <g id="xtick_1">
     <g id="line2d_1">
      <path d="M 69.218182 252 
L 69.218182 34.56 
" clip-path="url(#pb2f5706094)" style="fill: none; stroke: #b0b0b0; stroke-width: 0.8; stroke-linecap: square"/>
     </g>
     <g id="line2d_2">
      <defs>
       <path id="m1b78d7274b" d="M 0 0 
L 0 3.5 
" style="stroke: #000000; stroke-width: 0.8"/>
      </defs>
      <g>
       <use xlink:href="#m1b78d7274b" x="69.218182" y="252" style="stroke: #000000; stroke-width: 0.8"/>
      </g>
     </g>
     <g id="text_1">
      <!-- 0 -->
      <g transform="translate(66.036932 266.598437)scale(0.1 -0.1)">
       <defs>
        <path id="DejaVuSans-30" d="M 2034 4250 
Q 1547 4250 1301 3770 
Q 1056 3291 1056 2328 
Q 1056 1369 1301 889 
Q 1547 409 2034 409 
Q 2525 409 2770 889 
Q 3016 1369 3016 2328 
Q 3016 3291 2770 3770 
Q 2525 4250 2034 4250 
z
M 2034 4750 
Q 2819 4750 3233 4129 
Q 3647 3509 3647 2328 
Q 3647 1150 3233 529 
Q 2819 -91 2034 -91 
Q 1250 -91 836 529 
Q 422 1150 422 2328 
Q 422 3509 836 4129 
Q 1250 4750 2034 4750 
z
" transform="scale(0.015625)"/>
       </defs>
       <use xlink:href="#DejaVuSans-30"/>
      </g>
     </g>
    </g>
    <g id="xtick_2">
     <g id="line2d_3">
      <path d="M 130.212899 252 
L 130.212899 34.56 
" clip-path="url(#pb2f5706094)" style="fill: none; stroke: #b0b0b0; stroke-width: 0.8; stroke-linecap: square"/>
     </g>
     <g id="line2d_4">
      <g>
       <use xlink:href="#m1b78d7274b" x="130.212899" y="252" style="stroke: #000000; stroke-width: 0.8"/>
      </g>
     </g>
     <g id="text_2">
      <!-- 100 -->
      <g transform="translate(120.669149 266.598437)scale(0.1 -0.1)">
       <defs>
        <path id="DejaVuSans-31" d="M 794 531 
L 1825 531 
L 1825 4091 
L 703 3866 
L 703 4441 
L 1819 4666 
L 2450 4666 
L 2450 531 
L 3481 531 
L 3481 0 
L 794 0 
L 794 531 
z
" transform="scale(0.015625)"/>
       </defs>
       <use xlink:href="#DejaVuSans-31"/>
       <use xlink:href="#DejaVuSans-30" x="63.623047"/>
       <use xlink:href="#DejaVuSans-30" x="127.246094"/>
      </g>
     </g>
    </g>
    <g id="xtick_3">
     <g id="line2d_5">
      <path d="M 191.207615 252 
L 191.207615 34.56 
" clip-path="url(#pb2f5706094)" style="fill: none; stroke: #b0b0b0; stroke-width: 0.8; stroke-linecap: square"/>
     </g>
     <g id="line2d_6">
      <g>
       <use xlink:href="#m1b78d7274b" x="191.207615" y="252" style="stroke: #000000; stroke-width: 0.8"/>
      </g>
     </g>
     <g id="text_3">
      <!-- 200 -->
      <g transform="translate(181.663865 266.598437)scale(0.1 -0.1)">
       <defs>
        <path id="DejaVuSans-32" d="M 1228 531 
L 3431 531 
L 3431 0 
L 469 0 
L 469 531 
Q 828 903 1448 1529 
Q 2069 2156 2228 2338 
Q 2531 2678 2651 2914 
Q 2772 3150 2772 3378 
Q 2772 3750 2511 3984 
Q 2250 4219 1831 4219 
Q 1534 4219 1204 4116 
Q 875 4013 500 3803 
L 500 4441 
Q 881 4594 1212 4672 
Q 1544 4750 1819 4750 
Q 2544 4750 2975 4387 
Q 3406 4025 3406 3419 
Q 3406 3131 3298 2873 
Q 3191 2616 2906 2266 
Q 2828 2175 2409 1742 
Q 1991 1309 1228 531 
z
" transform="scale(0.015625)"/>
       </defs>
       <use xlink:href="#DejaVuSans-32"/>
       <use xlink:href="#DejaVuSans-30" x="63.623047"/>
       <use xlink:href="#DejaVuSans-30" x="127.246094"/>
      </g>
     </g>
    </g>
    <g id="xtick_4">
     <g id="line2d_7">
      <path d="M 252.202332 252 
L 252.202332 34.56 
" clip-path="url(#pb2f5706094)" style="fill: none; stroke: #b0b0b0; stroke-width: 0.8; stroke-linecap: square"/>
     </g>
     <g id="line2d_8">
      <g>
       <use xlink:href="#m1b78d7274b" x="252.202332" y="252" style="stroke: #000000; stroke-width: 0.8"/>
      </g>
     </g>
     <g id="text_4">
      <!-- 300 -->
      <g transform="translate(242.658582 266.598437)scale(0.1 -0.1)">
       <defs>
        <path id="DejaVuSans-33" d="M 2597 2516 
Q 3050 2419 3304 2112 
Q 3559 1806 3559 1356 
Q 3559 666 3084 287 
Q 2609 -91 1734 -91 
Q 1441 -91 1130 -33 
Q 819 25 488 141 
L 488 750 
Q 750 597 1062 519 
Q 1375 441 1716 441 
Q 2309 441 2620 675 
Q 2931 909 2931 1356 
Q 2931 1769 2642 2001 
Q 2353 2234 1838 2234 
L 1294 2234 
L 1294 2753 
L 1863 2753 
Q 2328 2753 2575 2939 
Q 2822 3125 2822 3475 
Q 2822 3834 2567 4026 
Q 2313 4219 1838 4219 
Q 1578 4219 1281 4162 
Q 984 4106 628 3988 
L 628 4550 
Q 988 4650 1302 4700 
Q 1616 4750 1894 4750 
Q 2613 4750 3031 4423 
Q 3450 4097 3450 3541 
Q 3450 3153 3228 2886 
Q 3006 2619 2597 2516 
z
" transform="scale(0.015625)"/>
       </defs>
       <use xlink:href="#DejaVuSans-33"/>
       <use xlink:href="#DejaVuSans-30" x="63.623047"/>
       <use xlink:href="#DejaVuSans-30" x="127.246094"/>
      </g>
     </g>
    </g>
    <g id="xtick_5">
     <g id="line2d_9">
      <path d="M 313.197049 252 
L 313.197049 34.56 
" clip-path="url(#pb2f5706094)" style="fill: none; stroke: #b0b0b0; stroke-width: 0.8; stroke-linecap: square"/>
     </g>
     <g id="line2d_10">
      <g>
       <use xlink:href="#m1b78d7274b" x="313.197049" y="252" style="stroke: #000000; stroke-width: 0.8"/>
      </g>
     </g>
     <g id="text_5">
      <!-- 400 -->
      <g transform="translate(303.653299 266.598437)scale(0.1 -0.1)">
       <defs>
        <path id="DejaVuSans-34" d="M 2419 4116 
L 825 1625 
L 2419 1625 
L 2419 4116 
z
M 2253 4666 
L 3047 4666 
L 3047 1625 
L 3713 1625 
L 3713 1100 
L 3047 1100 
L 3047 0 
L 2419 0 
L 2419 1100 
L 313 1100 
L 313 1709 
L 2253 4666 
z
" transform="scale(0.015625)"/>
       </defs>
       <use xlink:href="#DejaVuSans-34"/>
       <use xlink:href="#DejaVuSans-30" x="63.623047"/>
       <use xlink:href="#DejaVuSans-30" x="127.246094"/>
      </g>
     </g>
    </g>
    <g id="xtick_6">
     <g id="line2d_11">
      <path d="M 374.191765 252 
L 374.191765 34.56 
" clip-path="url(#pb2f5706094)" style="fill: none; stroke: #b0b0b0; stroke-width: 0.8; stroke-linecap: square"/>
     </g>
     <g id="line2d_12">
      <g>
       <use xlink:href="#m1b78d7274b" x="374.191765" y="252" style="stroke: #000000; stroke-width: 0.8"/>
      </g>
     </g>
     <g id="text_6">
      <!-- 500 -->
      <g transform="translate(364.648015 266.598437)scale(0.1 -0.1)">
       <defs>
        <path id="DejaVuSans-35" d="M 691 4666 
L 3169 4666 
L 3169 4134 
L 1269 4134 
L 1269 2991 
Q 1406 3038 1543 3061 
Q 1681 3084 1819 3084 
Q 2600 3084 3056 2656 
Q 3513 2228 3513 1497 
Q 3513 744 3044 326 
Q 2575 -91 1722 -91 
Q 1428 -91 1123 -41 
Q 819 9 494 109 
L 494 744 
Q 775 591 1075 516 
Q 1375 441 1709 441 
Q 2250 441 2565 725 
Q 2881 1009 2881 1497 
Q 2881 1984 2565 2268 
Q 2250 2553 1709 2553 
Q 1456 2553 1204 2497 
Q 953 2441 691 2322 
L 691 4666 
z
" transform="scale(0.015625)"/>
       </defs>
       <use xlink:href="#DejaVuSans-35"/>
       <use xlink:href="#DejaVuSans-30" x="63.623047"/>
       <use xlink:href="#DejaVuSans-30" x="127.246094"/>
      </g>
     </g>
    </g>
    <g id="text_7">
     <!-- Epoch -->
     <g transform="translate(206.089063 280.276563)scale(0.1 -0.1)">
      <defs>
       <path id="DejaVuSans-45" d="M 628 4666 
L 3578 4666 
L 3578 4134 
L 1259 4134 
L 1259 2753 
L 3481 2753 
L 3481 2222 
L 1259 2222 
L 1259 531 
L 3634 531 
L 3634 0 
L 628 0 
L 628 4666 
z
" transform="scale(0.015625)"/>
       <path id="DejaVuSans-70" d="M 1159 525 
L 1159 -1331 
L 581 -1331 
L 581 3500 
L 1159 3500 
L 1159 2969 
Q 1341 3281 1617 3432 
Q 1894 3584 2278 3584 
Q 2916 3584 3314 3078 
Q 3713 2572 3713 1747 
Q 3713 922 3314 415 
Q 2916 -91 2278 -91 
Q 1894 -91 1617 61 
Q 1341 213 1159 525 
z
M 3116 1747 
Q 3116 2381 2855 2742 
Q 2594 3103 2138 3103 
Q 1681 3103 1420 2742 
Q 1159 2381 1159 1747 
Q 1159 1113 1420 752 
Q 1681 391 2138 391 
Q 2594 391 2855 752 
Q 3116 1113 3116 1747 
z
" transform="scale(0.015625)"/>
       <path id="DejaVuSans-6f" d="M 1959 3097 
Q 1497 3097 1228 2736 
Q 959 2375 959 1747 
Q 959 1119 1226 758 
Q 1494 397 1959 397 
Q 2419 397 2687 759 
Q 2956 1122 2956 1747 
Q 2956 2369 2687 2733 
Q 2419 3097 1959 3097 
z
M 1959 3584 
Q 2709 3584 3137 3096 
Q 3566 2609 3566 1747 
Q 3566 888 3137 398 
Q 2709 -91 1959 -91 
Q 1206 -91 779 398 
Q 353 888 353 1747 
Q 353 2609 779 3096 
Q 1206 3584 1959 3584 
z
" transform="scale(0.015625)"/>
       <path id="DejaVuSans-63" d="M 3122 3366 
L 3122 2828 
Q 2878 2963 2633 3030 
Q 2388 3097 2138 3097 
Q 1578 3097 1268 2742 
Q 959 2388 959 1747 
Q 959 1106 1268 751 
Q 1578 397 2138 397 
Q 2388 397 2633 464 
Q 2878 531 3122 666 
L 3122 134 
Q 2881 22 2623 -34 
Q 2366 -91 2075 -91 
Q 1284 -91 818 406 
Q 353 903 353 1747 
Q 353 2603 823 3093 
Q 1294 3584 2113 3584 
Q 2378 3584 2631 3529 
Q 2884 3475 3122 3366 
z
" transform="scale(0.015625)"/>
       <path id="DejaVuSans-68" d="M 3513 2113 
L 3513 0 
L 2938 0 
L 2938 2094 
Q 2938 2591 2744 2837 
Q 2550 3084 2163 3084 
Q 1697 3084 1428 2787 
Q 1159 2491 1159 1978 
L 1159 0 
L 581 0 
L 581 4863 
L 1159 4863 
L 1159 2956 
Q 1366 3272 1645 3428 
Q 1925 3584 2291 3584 
Q 2894 3584 3203 3211 
Q 3513 2838 3513 2113 
z
" transform="scale(0.015625)"/>
      </defs>
      <use xlink:href="#DejaVuSans-45"/>
      <use xlink:href="#DejaVuSans-70" x="63.183594"/>
      <use xlink:href="#DejaVuSans-6f" x="126.660156"/>
      <use xlink:href="#DejaVuSans-63" x="187.841797"/>
      <use xlink:href="#DejaVuSans-68" x="242.822266"/>
     </g>
    </g>
   </g>
   <g id="matplotlib.axis_2">
    <g id="ytick_1">
     <g id="line2d_13">
      <path d="M 54 252 
L 388.8 252 
" clip-path="url(#pb2f5706094)" style="fill: none; stroke: #b0b0b0; stroke-width: 0.8; stroke-linecap: square"/>
     </g>
     <g id="line2d_14">
      <defs>
       <path id="m322b731371" d="M 0 0 
L -3.5 0 
" style="stroke: #000000; stroke-width: 0.8"/>
      </defs>
      <g>
       <use xlink:href="#m322b731371" x="54" y="252" style="stroke: #000000; stroke-width: 0.8"/>
      </g>
     </g>
     <g id="text_8">
      <!-- 0.0 -->
      <g transform="translate(31.096875 255.799219)scale(0.1 -0.1)">
       <defs>
        <path id="DejaVuSans-2e" d="M 684 794 
L 1344 794 
L 1344 0 
L 684 0 
L 684 794 
z
" transform="scale(0.015625)"/>
       </defs>
       <use xlink:href="#DejaVuSans-30"/>
       <use xlink:href="#DejaVuSans-2e" x="63.623047"/>
       <use xlink:href="#DejaVuSans-30" x="95.410156"/>
      </g>
     </g>
    </g>
    <g id="ytick_2">
     <g id="line2d_15">
      <path d="M 54 211.713799 
L 388.8 211.713799 
" clip-path="url(#pb2f5706094)" style="fill: none; stroke: #b0b0b0; stroke-width: 0.8; stroke-linecap: square"/>
     </g>
     <g id="line2d_16">
      <g>
       <use xlink:href="#m322b731371" x="54" y="211.713799" style="stroke: #000000; stroke-width: 0.8"/>
      </g>
     </g>
     <g id="text_9">
      <!-- 0.2 -->
      <g transform="translate(31.096875 215.513017)scale(0.1 -0.1)">
       <use xlink:href="#DejaVuSans-30"/>
       <use xlink:href="#DejaVuSans-2e" x="63.623047"/>
       <use xlink:href="#DejaVuSans-32" x="95.410156"/>
      </g>
     </g>
    </g>
    <g id="ytick_3">
     <g id="line2d_17">
      <path d="M 54 171.427597 
L 388.8 171.427597 
" clip-path="url(#pb2f5706094)" style="fill: none; stroke: #b0b0b0; stroke-width: 0.8; stroke-linecap: square"/>
     </g>
     <g id="line2d_18">
      <g>
       <use xlink:href="#m322b731371" x="54" y="171.427597" style="stroke: #000000; stroke-width: 0.8"/>
      </g>
     </g>
     <g id="text_10">
      <!-- 0.4 -->
      <g transform="translate(31.096875 175.226816)scale(0.1 -0.1)">
       <use xlink:href="#DejaVuSans-30"/>
       <use xlink:href="#DejaVuSans-2e" x="63.623047"/>
       <use xlink:href="#DejaVuSans-34" x="95.410156"/>
      </g>
     </g>
    </g>
    <g id="ytick_4">
     <g id="line2d_19">
      <path d="M 54 131.141396 
L 388.8 131.141396 
" clip-path="url(#pb2f5706094)" style="fill: none; stroke: #b0b0b0; stroke-width: 0.8; stroke-linecap: square"/>
     </g>
     <g id="line2d_20">
      <g>
       <use xlink:href="#m322b731371" x="54" y="131.141396" style="stroke: #000000; stroke-width: 0.8"/>
      </g>
     </g>
     <g id="text_11">
      <!-- 0.6 -->
      <g transform="translate(31.096875 134.940615)scale(0.1 -0.1)">
       <defs>
        <path id="DejaVuSans-36" d="M 2113 2584 
Q 1688 2584 1439 2293 
Q 1191 2003 1191 1497 
Q 1191 994 1439 701 
Q 1688 409 2113 409 
Q 2538 409 2786 701 
Q 3034 994 3034 1497 
Q 3034 2003 2786 2293 
Q 2538 2584 2113 2584 
z
M 3366 4563 
L 3366 3988 
Q 3128 4100 2886 4159 
Q 2644 4219 2406 4219 
Q 1781 4219 1451 3797 
Q 1122 3375 1075 2522 
Q 1259 2794 1537 2939 
Q 1816 3084 2150 3084 
Q 2853 3084 3261 2657 
Q 3669 2231 3669 1497 
Q 3669 778 3244 343 
Q 2819 -91 2113 -91 
Q 1303 -91 875 529 
Q 447 1150 447 2328 
Q 447 3434 972 4092 
Q 1497 4750 2381 4750 
Q 2619 4750 2861 4703 
Q 3103 4656 3366 4563 
z
" transform="scale(0.015625)"/>
       </defs>
       <use xlink:href="#DejaVuSans-30"/>
       <use xlink:href="#DejaVuSans-2e" x="63.623047"/>
       <use xlink:href="#DejaVuSans-36" x="95.410156"/>
      </g>
     </g>
    </g>
    <g id="ytick_5">
     <g id="line2d_21">
      <path d="M 54 90.855194 
L 388.8 90.855194 
" clip-path="url(#pb2f5706094)" style="fill: none; stroke: #b0b0b0; stroke-width: 0.8; stroke-linecap: square"/>
     </g>
     <g id="line2d_22">
      <g>
       <use xlink:href="#m322b731371" x="54" y="90.855194" style="stroke: #000000; stroke-width: 0.8"/>
      </g>
     </g>
     <g id="text_12">
      <!-- 0.8 -->
      <g transform="translate(31.096875 94.654413)scale(0.1 -0.1)">
       <defs>
        <path id="DejaVuSans-38" d="M 2034 2216 
Q 1584 2216 1326 1975 
Q 1069 1734 1069 1313 
Q 1069 891 1326 650 
Q 1584 409 2034 409 
Q 2484 409 2743 651 
Q 3003 894 3003 1313 
Q 3003 1734 2745 1975 
Q 2488 2216 2034 2216 
z
M 1403 2484 
Q 997 2584 770 2862 
Q 544 3141 544 3541 
Q 544 4100 942 4425 
Q 1341 4750 2034 4750 
Q 2731 4750 3128 4425 
Q 3525 4100 3525 3541 
Q 3525 3141 3298 2862 
Q 3072 2584 2669 2484 
Q 3125 2378 3379 2068 
Q 3634 1759 3634 1313 
Q 3634 634 3220 271 
Q 2806 -91 2034 -91 
Q 1263 -91 848 271 
Q 434 634 434 1313 
Q 434 1759 690 2068 
Q 947 2378 1403 2484 
z
M 1172 3481 
Q 1172 3119 1398 2916 
Q 1625 2713 2034 2713 
Q 2441 2713 2670 2916 
Q 2900 3119 2900 3481 
Q 2900 3844 2670 4047 
Q 2441 4250 2034 4250 
Q 1625 4250 1398 4047 
Q 1172 3844 1172 3481 
z
" transform="scale(0.015625)"/>
       </defs>
       <use xlink:href="#DejaVuSans-30"/>
       <use xlink:href="#DejaVuSans-2e" x="63.623047"/>
       <use xlink:href="#DejaVuSans-38" x="95.410156"/>
      </g>
     </g>
    </g>
    <g id="ytick_6">
     <g id="line2d_23">
      <path d="M 54 50.568993 
L 388.8 50.568993 
" clip-path="url(#pb2f5706094)" style="fill: none; stroke: #b0b0b0; stroke-width: 0.8; stroke-linecap: square"/>
     </g>
     <g id="line2d_24">
      <g>
       <use xlink:href="#m322b731371" x="54" y="50.568993" style="stroke: #000000; stroke-width: 0.8"/>
      </g>
     </g>
     <g id="text_13">
      <!-- 1.0 -->
      <g transform="translate(31.096875 54.368212)scale(0.1 -0.1)">
       <use xlink:href="#DejaVuSans-31"/>
       <use xlink:href="#DejaVuSans-2e" x="63.623047"/>
       <use xlink:href="#DejaVuSans-30" x="95.410156"/>
      </g>
     </g>
    </g>
   </g>
   <g id="line2d_25">
    <path d="M 69.218182 84.440135 
L 69.828129 108.076463 
L 71.65797 128.481556 
L 72.267918 129.025834 
L 72.877865 132.216356 
L 73.487812 129.250951 
L 74.097759 138.563758 
L 74.707706 136.059692 
L 75.317653 131.886737 
L 75.927601 139.59735 
L 76.537548 140.867633 
L 77.147495 139.548941 
L 78.367389 144.954587 
L 78.977336 148.055363 
L 79.587284 156.809941 
L 80.197231 152.933371 
L 80.807178 154.835505 
L 81.417125 150.590729 
L 82.027072 154.59756 
L 82.637019 154.013823 
L 83.246967 161.192729 
L 83.856914 164.71898 
L 84.466861 165.480193 
L 85.076808 169.808107 
L 85.686755 157.67616 
L 86.296702 161.603257 
L 86.90665 152.625832 
L 87.516597 152.21304 
L 88.126544 160.973249 
L 88.736491 164.59435 
L 89.346438 165.188202 
L 89.956385 163.311695 
L 90.566333 174.581319 
L 91.17628 165.689269 
L 91.786227 170.373077 
L 92.396174 163.905751 
L 93.006121 167.976749 
L 93.616069 173.238159 
L 94.226016 172.989053 
L 94.835963 170.522783 
L 95.44591 170.997521 
L 96.055857 178.062121 
L 96.665804 172.493424 
L 97.275752 182.390773 
L 97.885699 181.454119 
L 98.495646 177.486315 
L 99.105593 182.046242 
L 99.71554 180.388345 
L 100.325487 183.589066 
L 100.935435 183.948929 
L 101.545382 187.703035 
L 102.155329 187.682828 
L 102.765276 185.138091 
L 103.375223 183.685968 
L 104.595118 194.926459 
L 105.205065 185.215603 
L 105.815012 191.603545 
L 106.424959 192.548566 
L 107.034906 191.395561 
L 107.644853 193.538083 
L 108.254801 191.438399 
L 108.864748 191.743783 
L 110.084642 192.628246 
L 110.694589 193.897454 
L 111.304536 196.301496 
L 111.914484 201.086048 
L 112.524431 197.531461 
L 113.134378 196.340678 
L 113.744325 199.620148 
L 114.354272 201.354315 
L 114.964219 199.11875 
L 115.574167 209.390146 
L 116.184114 201.644454 
L 116.794061 206.700797 
L 117.404008 203.792857 
L 118.013955 205.635995 
L 118.623902 206.087183 
L 119.23385 207.018365 
L 119.843797 206.456012 
L 120.453744 209.16756 
L 121.063691 211.064297 
L 121.673638 207.192921 
L 122.283585 210.829816 
L 122.893533 212.603975 
L 123.50348 209.091276 
L 124.113427 211.075139 
L 124.723374 212.239106 
L 125.333321 214.619979 
L 126.553216 214.281683 
L 127.163163 215.32675 
L 127.77311 218.903236 
L 128.383057 217.190674 
L 128.993004 217.365025 
L 129.602951 220.092683 
L 130.212899 218.931736 
L 130.822846 221.207149 
L 131.432793 216.55749 
L 132.04274 220.758287 
L 132.652687 215.731179 
L 133.262634 220.928271 
L 133.872582 222.465563 
L 134.482529 221.715279 
L 135.092476 221.856731 
L 135.702423 219.541168 
L 136.922317 222.448899 
L 137.532265 224.974708 
L 138.752159 221.042454 
L 139.362106 221.774716 
L 139.972053 223.975925 
L 140.582 221.042364 
L 141.191948 224.891958 
L 141.801895 222.18056 
L 142.411842 224.63444 
L 143.021789 225.519061 
L 143.631736 224.691526 
L 144.241683 225.620601 
L 144.851631 225.441297 
L 145.461578 227.993913 
L 146.071525 226.894081 
L 146.681472 227.641487 
L 147.291419 229.002747 
L 147.901366 228.765143 
L 148.511314 228.143269 
L 149.121261 226.969461 
L 149.731208 229.026763 
L 150.341155 228.239834 
L 150.951102 228.840394 
L 151.561049 226.802773 
L 152.170997 228.849106 
L 152.780944 227.851126 
L 153.390891 227.178896 
L 154.000838 231.276455 
L 154.610785 226.405481 
L 155.220732 230.208554 
L 155.83068 230.36503 
L 157.050574 231.321403 
L 157.660521 229.52157 
L 158.270468 229.072662 
L 158.880415 230.433051 
L 159.490363 229.438458 
L 160.10031 232.375479 
L 160.710257 230.23944 
L 161.320204 231.923961 
L 162.540098 229.130917 
L 163.150046 235.195491 
L 163.759993 231.618967 
L 164.36994 229.380149 
L 164.979887 230.998442 
L 165.589834 232.115246 
L 166.199781 231.84872 
L 166.809729 229.956674 
L 167.419676 231.106244 
L 168.029623 231.917485 
L 168.63957 232.298242 
L 169.249517 232.827622 
L 169.859464 233.807817 
L 170.469412 231.592986 
L 171.079359 233.968891 
L 171.689306 234.507585 
L 172.299253 232.199822 
L 172.9092 233.179392 
L 173.519147 233.118669 
L 174.129095 231.943495 
L 174.739042 233.620874 
L 175.348989 231.793988 
L 175.958936 232.917337 
L 176.568883 231.816573 
L 177.788778 233.83137 
L 178.398725 234.15619 
L 179.008672 234.921175 
L 179.618619 233.658307 
L 180.838513 228.313255 
L 181.448461 232.029059 
L 182.058408 231.61695 
L 182.668355 233.782498 
L 183.278302 231.251637 
L 184.498196 232.282575 
L 185.718091 234.923246 
L 186.328038 231.630164 
L 187.547932 232.891232 
L 188.157879 231.818892 
L 188.767827 235.922457 
L 189.377774 231.233971 
L 189.987721 233.197134 
L 190.597668 232.205579 
L 191.207615 230.826906 
L 191.817562 232.434526 
L 192.42751 236.442313 
L 193.037457 233.319536 
L 193.647404 232.399075 
L 194.257351 234.180036 
L 194.867298 231.389903 
L 195.477245 231.333105 
L 196.087193 234.429012 
L 196.69714 233.848451 
L 197.307087 230.628286 
L 197.917034 236.227571 
L 198.526981 234.139719 
L 199.136928 232.712185 
L 199.746876 233.649602 
L 200.356823 232.133167 
L 200.96677 233.320978 
L 201.576717 235.849474 
L 202.186664 233.388563 
L 202.796611 233.510521 
L 203.406559 237.895656 
L 204.016506 234.043639 
L 204.626453 234.289828 
L 205.2364 233.487499 
L 205.846347 233.88709 
L 206.456294 234.138616 
L 207.066242 231.482119 
L 207.676189 232.027488 
L 208.286136 233.896404 
L 208.896083 234.911773 
L 209.50603 236.633048 
L 210.115977 235.882551 
L 210.725925 234.595631 
L 211.335872 235.765312 
L 211.945819 236.3008 
L 212.555766 238.045782 
L 213.165713 233.997005 
L 213.77566 232.838192 
L 214.385608 233.791433 
L 214.995555 235.991179 
L 215.605502 235.363269 
L 216.215449 234.334934 
L 216.825396 234.330081 
L 217.435343 232.985682 
L 218.045291 233.49819 
L 219.265185 235.062583 
L 219.875132 235.127855 
L 220.485079 232.860204 
L 221.095026 232.383513 
L 221.704974 232.568329 
L 222.314921 233.493244 
L 222.924868 236.469911 
L 223.534815 234.307546 
L 224.144762 232.822252 
L 224.754709 236.24681 
L 225.364657 233.567327 
L 226.584551 235.416495 
L 227.194498 233.646491 
L 227.804445 234.896405 
L 228.414392 234.980368 
L 229.02434 235.84957 
L 229.634287 234.203272 
L 230.244234 236.048689 
L 230.854181 233.207766 
L 231.464128 233.898508 
L 232.074075 234.967389 
L 232.684023 234.497227 
L 233.29397 234.699704 
L 233.903917 236.516773 
L 234.513864 231.604342 
L 235.733758 234.906682 
L 236.343706 235.670829 
L 237.5636 233.230461 
L 238.173547 233.677896 
L 238.783494 235.175797 
L 239.393441 231.816147 
L 240.003389 234.027518 
L 240.613336 233.577574 
L 241.223283 232.476807 
L 241.83323 236.519027 
L 242.443177 233.594848 
L 243.053124 233.002991 
L 243.663072 232.13746 
L 244.273019 236.574225 
L 244.882966 233.713905 
L 245.492913 234.260087 
L 246.10286 231.305375 
L 246.712807 236.379048 
L 247.322755 233.780201 
L 247.932702 236.282987 
L 248.542649 236.075355 
L 249.152596 233.844 
L 249.762543 235.213351 
L 250.37249 235.430922 
L 250.982438 233.883374 
L 251.592385 234.353364 
L 252.202332 234.261195 
L 252.812279 234.539128 
L 253.422226 233.086293 
L 254.032173 235.779065 
L 254.642121 235.30754 
L 255.252068 236.59039 
L 255.862015 232.468043 
L 256.471962 234.944113 
L 257.081909 233.438152 
L 257.691856 233.011273 
L 258.301804 235.603177 
L 258.911751 232.397913 
L 259.521698 236.125527 
L 260.131645 234.087348 
L 260.741592 236.059283 
L 261.351539 235.370651 
L 261.961487 234.280001 
L 262.571434 234.219799 
L 263.181381 234.944567 
L 263.791328 232.416218 
L 264.401275 233.341282 
L 265.011222 235.62233 
L 265.62117 235.746462 
L 266.231117 234.074876 
L 266.841064 234.965232 
L 267.451011 234.65344 
L 268.060958 235.856079 
L 268.670905 232.95936 
L 269.8908 239.522294 
L 271.110694 233.229916 
L 271.720641 235.83017 
L 272.330588 234.996151 
L 272.940536 234.466603 
L 273.550483 231.933992 
L 274.16043 235.553972 
L 274.770377 233.506785 
L 275.380324 232.158578 
L 275.990271 235.878385 
L 276.600219 235.007188 
L 277.210166 236.899288 
L 277.820113 234.963712 
L 278.43006 236.489652 
L 279.040007 233.746176 
L 279.649954 234.69189 
L 280.259902 232.990309 
L 281.479796 237.002706 
L 282.089743 233.353445 
L 283.309637 232.496311 
L 283.919585 233.397245 
L 284.529532 233.119457 
L 285.139479 236.03345 
L 285.749426 234.883243 
L 286.359373 234.909523 
L 286.96932 230.353927 
L 287.579268 233.880396 
L 288.189215 234.287925 
L 288.799162 233.320294 
L 289.409109 235.382732 
L 290.019056 233.625206 
L 290.629003 234.205975 
L 291.238951 235.199064 
L 291.848898 233.945878 
L 292.458845 233.937569 
L 293.068792 234.387614 
L 293.678739 236.461002 
L 294.288686 233.23368 
L 294.898634 234.231583 
L 295.508581 235.471069 
L 296.118528 232.113329 
L 296.728475 234.117314 
L 297.338422 233.65001 
L 297.948369 233.658298 
L 298.558317 237.164888 
L 299.168264 233.561227 
L 299.778211 235.836212 
L 300.388158 235.187425 
L 300.998105 235.086324 
L 301.608052 233.873203 
L 302.218 232.07086 
L 302.827947 231.766093 
L 303.437894 233.558493 
L 304.047841 232.763571 
L 304.657788 233.586104 
L 305.267735 233.728275 
L 305.877683 235.573107 
L 306.48763 234.334326 
L 307.097577 237.228893 
L 307.707524 233.28743 
L 308.317471 235.603962 
L 308.927418 235.433867 
L 309.537366 235.766939 
L 310.147313 228.278951 
L 310.75726 232.607503 
L 311.367207 234.835898 
L 311.977154 233.684159 
L 312.587101 233.350085 
L 313.197049 237.458851 
L 313.806996 235.99767 
L 314.416943 236.237982 
L 315.02689 233.668451 
L 315.636837 232.160052 
L 316.246784 232.981333 
L 316.856732 234.616291 
L 317.466679 234.355471 
L 318.076626 235.200913 
L 319.29652 233.343696 
L 319.906467 234.264189 
L 320.516415 232.166856 
L 321.126362 232.328808 
L 321.736309 236.084888 
L 322.346256 234.180016 
L 322.956203 234.415647 
L 323.56615 235.541975 
L 324.176098 232.673307 
L 324.786045 233.863219 
L 325.395992 233.272922 
L 326.005939 235.817593 
L 326.615886 233.483406 
L 327.225833 232.939805 
L 327.835781 232.8112 
L 328.445728 235.484781 
L 329.055675 237.56857 
L 329.665622 237.275341 
L 330.275569 232.411678 
L 330.885516 236.532511 
L 331.495464 233.321793 
L 332.105411 232.509391 
L 332.715358 234.422725 
L 333.325305 232.36821 
L 333.935252 237.284815 
L 334.545199 233.330529 
L 335.155147 233.592095 
L 335.765094 235.677263 
L 336.375041 235.319748 
L 336.984988 234.807948 
L 337.594935 233.365801 
L 338.204882 236.118364 
L 338.81483 234.593637 
L 339.424777 233.616079 
L 340.034724 235.785931 
L 340.644671 235.75036 
L 341.254618 232.565475 
L 341.864565 234.980536 
L 342.474513 231.070373 
L 343.08446 231.97753 
L 343.694407 234.927401 
L 344.304354 235.127881 
L 344.914301 232.142042 
L 345.524248 232.205993 
L 346.134196 235.00488 
L 347.35409 234.478173 
L 347.964037 233.367414 
L 348.573984 235.431507 
L 349.183931 235.748634 
L 349.793879 235.605832 
L 351.013773 232.17413 
L 351.62372 236.237122 
L 352.233667 233.292365 
L 352.843615 234.019738 
L 353.453562 234.341282 
L 354.063509 235.17374 
L 354.673456 235.470958 
L 355.283403 234.841546 
L 355.89335 235.288468 
L 356.503298 234.789296 
L 357.113245 234.582261 
L 357.723192 235.010892 
L 358.333139 233.241937 
L 358.943086 235.324801 
L 359.553033 236.518449 
L 360.162981 233.977321 
L 360.772928 232.994582 
L 361.382875 235.464876 
L 361.992822 235.541507 
L 362.602769 233.328514 
L 363.212716 235.130535 
L 363.822664 233.024716 
L 364.432611 234.153859 
L 365.042558 236.936321 
L 365.652505 233.089775 
L 366.262452 234.427019 
L 366.872399 234.647953 
L 367.482347 233.998935 
L 368.092294 236.377392 
L 368.702241 234.451962 
L 369.312188 235.839591 
L 369.922135 232.044309 
L 370.532082 233.039928 
L 371.14203 236.514221 
L 371.751977 232.740634 
L 372.361924 235.108028 
L 372.971871 234.994984 
L 373.581818 234.698451 
L 373.581818 234.698451 
" clip-path="url(#pb2f5706094)" style="fill: none; stroke-dasharray: 9.6,2.4,1.5,2.4; stroke-dashoffset: 0; stroke: #1f77b4; stroke-width: 1.5"/>
   </g>
   <g id="line2d_26">
    <path d="M 69.218182 84.86016 
L 69.828129 108.082166 
L 71.65797 128.481568 
L 72.267918 129.025846 
L 72.877865 132.216368 
L 73.487812 129.250951 
L 74.097759 138.563758 
L 74.707706 136.059692 
L 75.317653 131.886737 
L 75.927601 139.59735 
L 76.537548 140.867633 
L 77.147495 139.548941 
L 78.367389 144.954587 
L 78.977336 148.055363 
L 79.587284 156.809941 
L 80.197231 152.933371 
L 80.807178 154.835505 
L 81.417125 150.590729 
L 82.027072 154.59756 
L 82.637019 154.013823 
L 83.246967 161.192729 
L 83.856914 164.71898 
L 84.466861 165.480193 
L 85.076808 169.808107 
L 85.686755 157.67616 
L 86.296702 161.603257 
L 86.90665 152.625832 
L 87.516597 152.21304 
L 88.126544 160.973249 
L 88.736491 164.59435 
L 89.346438 165.188202 
L 89.956385 163.311695 
L 90.566333 174.581319 
L 91.17628 165.689269 
L 91.786227 170.373077 
L 92.396174 163.905751 
L 93.006121 167.976749 
L 93.616069 173.238159 
L 94.226016 172.989053 
L 94.835963 170.522783 
L 95.44591 170.997521 
L 96.055857 178.062121 
L 96.665804 172.493424 
L 97.275752 182.390773 
L 97.885699 181.454119 
L 98.495646 177.486315 
L 99.105593 182.046242 
L 99.71554 180.388345 
L 100.325487 183.589066 
L 100.935435 183.948929 
L 101.545382 187.703035 
L 102.155329 187.682828 
L 102.765276 185.138091 
L 103.375223 183.685968 
L 104.595118 194.926459 
L 105.205065 185.215603 
L 105.815012 191.603545 
L 106.424959 192.548566 
L 107.034906 191.395561 
L 107.644853 193.538083 
L 108.254801 191.438399 
L 108.864748 191.743783 
L 110.084642 192.628246 
L 110.694589 193.897454 
L 111.304536 196.301496 
L 111.914484 201.086048 
L 112.524431 197.531461 
L 113.134378 196.340678 
L 113.744325 199.620148 
L 114.354272 201.354315 
L 114.964219 199.11875 
L 115.574167 209.390146 
L 116.184114 201.644454 
L 116.794061 206.700797 
L 117.404008 203.792857 
L 118.013955 205.635995 
L 118.623902 206.087183 
L 119.23385 207.018365 
L 119.843797 206.456012 
L 120.453744 209.16756 
L 121.063691 211.064297 
L 121.673638 207.192921 
L 122.283585 210.829816 
L 122.893533 212.603975 
L 123.50348 209.091276 
L 124.113427 211.075139 
L 124.723374 212.239106 
L 125.333321 214.619979 
L 126.553216 214.281683 
L 127.163163 215.32675 
L 127.77311 218.903236 
L 128.383057 217.190674 
L 128.993004 217.365025 
L 129.602951 220.092683 
L 130.212899 218.931736 
L 130.822846 221.207149 
L 131.432793 216.55749 
L 132.04274 220.758287 
L 132.652687 215.731179 
L 133.262634 220.928271 
L 133.872582 222.465563 
L 134.482529 221.715279 
L 135.092476 221.856731 
L 135.702423 219.541168 
L 136.922317 222.448899 
L 137.532265 224.974708 
L 138.752159 221.042454 
L 139.362106 221.774716 
L 139.972053 223.975925 
L 140.582 221.042364 
L 141.191948 224.891958 
L 141.801895 222.18056 
L 142.411842 224.63444 
L 143.021789 225.519061 
L 143.631736 224.691526 
L 144.241683 225.620601 
L 144.851631 225.441297 
L 145.461578 227.993913 
L 146.071525 226.894081 
L 146.681472 227.641487 
L 147.291419 229.002747 
L 147.901366 228.765143 
L 148.511314 228.143269 
L 149.121261 226.969461 
L 149.731208 229.026763 
L 150.341155 228.239834 
L 150.951102 228.840394 
L 151.561049 226.802773 
L 152.170997 228.849106 
L 152.780944 227.851126 
L 153.390891 227.178896 
L 154.000838 231.276455 
L 154.610785 226.405481 
L 155.220732 230.208554 
L 155.83068 230.36503 
L 157.050574 231.321403 
L 157.660521 229.52157 
L 158.270468 229.072662 
L 158.880415 230.433051 
L 159.490363 229.438458 
L 160.10031 232.375479 
L 160.710257 230.23944 
L 161.320204 231.923961 
L 162.540098 229.130917 
L 163.150046 235.195491 
L 163.759993 231.618967 
L 164.36994 229.380149 
L 164.979887 230.998442 
L 165.589834 232.115246 
L 166.199781 231.84872 
L 166.809729 229.956674 
L 167.419676 231.106244 
L 168.029623 231.917485 
L 168.63957 232.298242 
L 169.249517 232.827622 
L 169.859464 233.807817 
L 170.469412 231.592986 
L 171.079359 233.968891 
L 171.689306 234.507585 
L 172.299253 232.199822 
L 172.9092 233.179392 
L 173.519147 233.118669 
L 174.129095 231.943495 
L 174.739042 233.620874 
L 175.348989 231.793988 
L 175.958936 232.917337 
L 176.568883 231.816573 
L 177.788778 233.83137 
L 178.398725 234.15619 
L 179.008672 234.921175 
L 179.618619 233.658307 
L 180.838513 228.313255 
L 181.448461 232.029059 
L 182.058408 231.61695 
L 182.668355 233.782498 
L 183.278302 231.251637 
L 184.498196 232.282575 
L 185.718091 234.923246 
L 186.328038 231.630164 
L 187.547932 232.891232 
L 188.157879 231.818892 
L 188.767827 235.922457 
L 189.377774 231.233971 
L 189.987721 233.197134 
L 190.597668 232.205579 
L 191.207615 230.826906 
L 191.817562 232.434526 
L 192.42751 236.442313 
L 193.037457 233.319536 
L 193.647404 232.399075 
L 194.257351 234.180036 
L 194.867298 231.389903 
L 195.477245 231.333105 
L 196.087193 234.429012 
L 196.69714 233.848451 
L 197.307087 230.628286 
L 197.917034 236.227571 
L 198.526981 234.139719 
L 199.136928 232.712185 
L 199.746876 233.649602 
L 200.356823 232.133167 
L 200.96677 233.320978 
L 201.576717 235.849474 
L 202.186664 233.388563 
L 202.796611 233.510521 
L 203.406559 237.895656 
L 204.016506 234.043641 
L 204.626453 234.289828 
L 205.2364 233.487499 
L 205.846347 233.88709 
L 206.456294 234.138616 
L 207.066242 231.482119 
L 207.676189 232.027488 
L 208.286136 233.896404 
L 208.896083 234.911773 
L 209.50603 236.633048 
L 210.115977 235.882551 
L 210.725925 234.595631 
L 211.335872 235.765312 
L 211.945819 236.3008 
L 212.555766 238.045782 
L 213.165713 233.997005 
L 213.77566 232.838192 
L 214.385608 233.791433 
L 214.995555 235.991179 
L 215.605502 235.363269 
L 216.215449 234.334934 
L 216.825396 234.330081 
L 217.435343 232.985682 
L 218.045291 233.49819 
L 219.265185 235.062583 
L 219.875132 235.127855 
L 220.485079 232.860204 
L 221.095026 232.383513 
L 221.704974 232.568329 
L 222.314921 233.493244 
L 222.924868 236.469911 
L 223.534815 234.307546 
L 224.144762 232.822252 
L 224.754709 236.24681 
L 225.364657 233.567327 
L 226.584551 235.416495 
L 227.194498 233.646491 
L 227.804445 234.896405 
L 228.414392 234.980368 
L 229.02434 235.84957 
L 229.634287 234.203272 
L 230.244234 236.048689 
L 230.854181 233.207766 
L 231.464128 233.898508 
L 232.074075 234.967389 
L 232.684023 234.497227 
L 233.29397 234.699704 
L 233.903917 236.516773 
L 234.513864 231.604342 
L 235.733758 234.906682 
L 236.343706 235.670829 
L 237.5636 233.230461 
L 238.173547 233.677896 
L 238.783494 235.175797 
L 239.393441 231.816147 
L 240.003389 234.027518 
L 240.613336 233.577574 
L 241.223283 232.476807 
L 241.83323 236.519027 
L 242.443177 233.594848 
L 243.053124 233.002991 
L 243.663072 232.13746 
L 244.273019 236.574225 
L 244.882966 233.713905 
L 245.492913 234.260087 
L 246.10286 231.305375 
L 246.712807 236.379048 
L 247.322755 233.780201 
L 247.932702 236.282987 
L 248.542649 236.075355 
L 249.152596 233.844 
L 249.762543 235.213351 
L 250.37249 235.430922 
L 250.982438 233.883374 
L 251.592385 234.353364 
L 252.202332 234.261195 
L 252.812279 234.539128 
L 253.422226 233.086293 
L 254.032173 235.779065 
L 254.642121 235.30754 
L 255.252068 236.59039 
L 255.862015 232.468043 
L 256.471962 234.944113 
L 257.081909 233.438152 
L 257.691856 233.011273 
L 258.301804 235.603177 
L 258.911751 232.397913 
L 259.521698 236.125527 
L 260.131645 234.087348 
L 260.741592 236.059283 
L 261.351539 235.370651 
L 261.961487 234.280001 
L 262.571434 234.219799 
L 263.181381 234.944567 
L 263.791328 232.416218 
L 264.401275 233.341282 
L 265.011222 235.62233 
L 265.62117 235.746462 
L 266.231117 234.074876 
L 266.841064 234.965232 
L 267.451011 234.65344 
L 268.060958 235.856079 
L 268.670905 232.95936 
L 269.8908 239.522294 
L 271.110694 233.229916 
L 271.720641 235.83017 
L 272.330588 234.996151 
L 272.940536 234.466603 
L 273.550483 231.933992 
L 274.16043 235.553972 
L 274.770377 233.506785 
L 275.380324 232.158578 
L 275.990271 235.878385 
L 276.600219 235.007188 
L 277.210166 236.899288 
L 277.820113 234.963712 
L 278.43006 236.489652 
L 279.040007 233.746176 
L 279.649954 234.69189 
L 280.259902 232.990309 
L 281.479796 237.002706 
L 282.089743 233.353445 
L 283.309637 232.496311 
L 283.919585 233.397245 
L 284.529532 233.119457 
L 285.139479 236.03345 
L 285.749426 234.883243 
L 286.359373 234.909523 
L 286.96932 230.353927 
L 287.579268 233.880396 
L 288.189215 234.287925 
L 288.799162 233.320294 
L 289.409109 235.382732 
L 290.019056 233.625206 
L 290.629003 234.205975 
L 291.238951 235.199064 
L 291.848898 233.94588 
L 292.458845 233.93757 
L 293.068792 234.387614 
L 293.678739 236.461002 
L 294.288686 233.23368 
L 294.898634 234.231583 
L 295.508581 235.471069 
L 296.118528 232.113329 
L 296.728475 234.117314 
L 297.338422 233.65001 
L 297.948369 233.658298 
L 298.558317 237.164888 
L 299.168264 233.561227 
L 299.778211 235.836212 
L 300.388158 235.187425 
L 300.998105 235.086324 
L 301.608052 233.873205 
L 302.218 232.07086 
L 302.827947 231.766093 
L 303.437894 233.558493 
L 304.047841 232.763571 
L 304.657788 233.586104 
L 305.267735 233.728275 
L 305.877683 235.573107 
L 306.48763 234.334326 
L 307.097577 237.228893 
L 307.707524 233.28743 
L 308.317471 235.603962 
L 308.927418 235.433867 
L 309.537366 235.76694 
L 310.147313 228.278951 
L 310.75726 232.607503 
L 311.367207 234.835898 
L 311.977154 233.684159 
L 312.587101 233.350085 
L 313.197049 237.458851 
L 313.806996 235.99767 
L 314.416943 236.237982 
L 315.02689 233.668451 
L 315.636837 232.160052 
L 316.246784 232.981333 
L 316.856732 234.616291 
L 317.466679 234.355471 
L 318.076626 235.200913 
L 319.29652 233.343696 
L 319.906467 234.264189 
L 320.516415 232.166856 
L 321.126362 232.328808 
L 321.736309 236.084888 
L 322.346256 234.180016 
L 322.956203 234.415647 
L 323.56615 235.541975 
L 324.176098 232.673307 
L 324.786045 233.863219 
L 325.395992 233.272922 
L 326.005939 235.817593 
L 326.615886 233.483406 
L 327.225833 232.939805 
L 327.835781 232.8112 
L 328.445728 235.484781 
L 329.055675 237.56857 
L 329.665622 237.275341 
L 330.275569 232.411678 
L 330.885516 236.532511 
L 331.495464 233.321793 
L 332.105411 232.509391 
L 332.715358 234.422725 
L 333.325305 232.36821 
L 333.935252 237.284815 
L 334.545199 233.330529 
L 335.155147 233.592095 
L 335.765094 235.677263 
L 336.375041 235.319748 
L 336.984988 234.807948 
L 337.594935 233.365801 
L 338.204882 236.118364 
L 338.81483 234.593637 
L 339.424777 233.616079 
L 340.034724 235.785931 
L 340.644671 235.75036 
L 341.254618 232.565475 
L 341.864565 234.980536 
L 342.474513 231.070373 
L 343.08446 231.97753 
L 343.694407 234.927401 
L 344.304354 235.127881 
L 344.914301 232.142042 
L 345.524248 232.205993 
L 346.134196 235.00488 
L 347.35409 234.478173 
L 347.964037 233.367414 
L 348.573984 235.431507 
L 349.183931 235.748634 
L 349.793879 235.605832 
L 351.013773 232.17413 
L 351.62372 236.237122 
L 352.233667 233.292365 
L 352.843615 234.019738 
L 353.453562 234.341282 
L 354.063509 235.17374 
L 354.673456 235.470958 
L 355.283403 234.841546 
L 355.89335 235.288468 
L 356.503298 234.789298 
L 357.113245 234.582261 
L 357.723192 235.010892 
L 358.333139 233.241937 
L 358.943086 235.324801 
L 359.553033 236.518449 
L 360.162981 233.977321 
L 360.772928 232.994582 
L 361.382875 235.464876 
L 361.992822 235.541507 
L 362.602769 233.328514 
L 363.212716 235.130535 
L 363.822664 233.024716 
L 364.432611 234.153859 
L 365.042558 236.936322 
L 365.652505 233.089775 
L 366.262452 234.427019 
L 366.872399 234.647953 
L 367.482347 233.998935 
L 368.092294 236.377392 
L 368.702241 234.451962 
L 369.312188 235.839591 
L 369.922135 232.044309 
L 370.532082 233.039928 
L 371.14203 236.514221 
L 371.751977 232.740634 
L 372.361924 235.108028 
L 372.971871 234.994984 
L 373.581818 234.698451 
L 373.581818 234.698451 
" clip-path="url(#pb2f5706094)" style="fill: none; stroke-dasharray: 9.6,2.4,1.5,2.4; stroke-dashoffset: 0; stroke: #ff7f0e; stroke-width: 1.5"/>
   </g>
   <g id="line2d_27">
    <path d="M 97.885699 150.887415 
L 98.495646 177.463221 
M 178.398725 80.090052 
L 179.008672 76.635465 
L 179.618619 88.510773 
M 210.115977 74.022298 
L 210.725925 73.305743 
M 332.715358 76.230855 
L 333.325305 72.523321 
M 371.751977 77.416242 
" clip-path="url(#pb2f5706094)" style="fill: none; stroke-dasharray: 1.5,2.475; stroke-dashoffset: 0; stroke: #2ca02c; stroke-width: 1.5"/>
   </g>
   <g id="line2d_28">
    <path d="M 69.218182 205.424017 
L 69.828129 201.46039 
L 70.438076 218.825234 
L 71.048023 223.755284 
L 71.65797 221.755653 
L 72.267918 226.940829 
L 72.877865 207.730169 
L 73.487812 224.21858 
L 74.097759 217.318606 
L 74.707706 225.073384 
L 75.317653 225.320247 
L 75.927601 224.493258 
L 76.537548 221.098487 
L 77.147495 222.456511 
L 77.757442 220.503473 
L 78.367389 226.754541 
L 78.977336 227.406046 
L 79.587284 224.634199 
L 80.197231 225.332833 
L 80.807178 227.170229 
L 81.417125 226.853077 
L 82.027072 219.760318 
L 82.637019 225.116775 
L 83.246967 222.32684 
L 83.856914 226.87841 
L 84.466861 227.311377 
L 85.076808 228.874892 
L 85.686755 227.2278 
L 86.296702 227.813754 
L 86.90665 227.972838 
L 87.516597 216.902888 
L 88.126544 228.320589 
L 88.736491 228.43979 
L 89.346438 225.124122 
L 89.956385 223.561152 
L 90.566333 231.088122 
L 91.17628 220.424745 
L 91.786227 227.106584 
L 92.396174 221.832208 
L 93.006121 229.477076 
L 93.616069 217.580417 
L 94.226016 230.302192 
L 94.835963 228.120588 
L 95.44591 228.779332 
L 96.055857 226.401732 
L 96.665804 226.997937 
L 97.275752 230.183569 
L 97.885699 230.514624 
L 98.495646 227.82837 
L 99.105593 223.401908 
L 99.71554 231.03483 
L 100.325487 229.159149 
L 100.935435 230.417702 
L 101.545382 225.19941 
L 102.155329 223.572735 
L 102.765276 230.424489 
L 103.375223 228.340063 
L 103.98517 228.49855 
L 104.595118 230.914392 
L 105.205065 230.52142 
L 105.815012 230.717216 
L 106.424959 228.798641 
L 107.034906 223.139437 
L 107.644853 231.316706 
L 108.254801 223.406266 
L 108.864748 227.884547 
L 109.474695 227.949247 
L 110.084642 230.498273 
L 110.694589 228.058427 
L 111.304536 230.220602 
L 111.914484 227.225027 
L 112.524431 230.673807 
L 113.134378 227.671538 
L 113.744325 230.898469 
L 114.354272 230.443496 
L 114.964219 229.623911 
L 115.574167 230.641773 
L 116.794061 228.771838 
L 117.404008 229.823656 
L 118.013955 227.699936 
L 118.623902 230.564741 
L 119.23385 231.066768 
L 119.843797 229.746034 
L 120.453744 230.510589 
L 121.063691 228.241576 
L 121.673638 229.938663 
L 122.283585 229.090221 
L 122.893533 229.26016 
L 123.50348 230.235236 
L 124.723374 230.389326 
L 125.333321 230.616269 
L 125.943268 230.112735 
L 126.553216 229.263405 
L 127.163163 230.728195 
L 128.383057 230.551155 
L 128.993004 230.156527 
L 129.602951 230.422203 
L 130.212899 230.387507 
L 130.822846 228.924326 
L 131.432793 228.869066 
L 132.04274 230.40465 
L 132.652687 230.632024 
L 133.262634 229.44352 
L 133.872582 229.793891 
L 134.482529 229.83719 
L 135.092476 230.219862 
L 135.702423 229.905694 
L 136.31237 230.442395 
L 136.922317 228.629746 
L 137.532265 230.28271 
L 138.142212 230.488586 
L 138.752159 230.139784 
L 139.362106 229.523868 
L 139.972053 230.476545 
L 140.582 229.669745 
L 141.191948 230.391142 
L 141.801895 230.107028 
L 142.411842 230.564408 
L 143.631736 230.496159 
L 144.241683 229.608918 
L 144.851631 230.716605 
L 145.461578 230.932558 
L 146.071525 231.000567 
L 146.681472 230.738557 
L 147.291419 230.95972 
L 147.901366 230.779295 
L 148.511314 230.254653 
L 149.121261 231.032768 
L 149.731208 230.525032 
L 150.341155 230.523014 
L 150.951102 230.655226 
L 151.561049 230.261495 
L 152.170997 230.652924 
L 152.780944 229.974971 
L 153.390891 230.470798 
L 154.610785 230.652613 
L 155.220732 230.636978 
L 155.83068 230.920925 
L 156.440627 230.357184 
L 158.270468 230.792582 
L 159.490363 230.368432 
L 160.710257 230.811622 
L 162.540098 230.727043 
L 163.150046 230.802672 
L 163.759993 230.46919 
L 164.36994 230.408579 
L 166.199781 230.60362 
L 166.809729 230.460295 
L 167.419676 230.163148 
L 168.029623 230.259369 
L 168.63957 230.678328 
L 169.249517 230.699519 
L 169.859464 230.252512 
L 170.469412 230.664642 
L 171.079359 230.563281 
L 172.299253 230.65797 
L 173.519147 230.779735 
L 174.129095 230.488784 
L 174.739042 230.540544 
L 175.348989 230.798633 
L 175.958936 230.666018 
L 176.568883 230.786085 
L 177.17883 230.735728 
L 177.788778 230.524385 
L 178.398725 230.719884 
L 179.008672 230.337174 
L 179.618619 230.370354 
L 180.228566 230.676581 
L 182.058408 230.747627 
L 182.668355 230.583505 
L 184.498196 230.437096 
L 185.108144 230.727682 
L 188.767827 230.545092 
L 189.377774 230.696697 
L 190.597668 230.444185 
L 192.42751 230.574742 
L 193.037457 230.262971 
L 194.257351 230.662451 
L 195.477245 230.495213 
L 196.087193 230.583719 
L 196.69714 230.520597 
L 197.307087 230.662088 
L 198.526981 230.613797 
L 199.746876 230.720529 
L 201.576717 230.593433 
L 202.186664 230.700592 
L 202.796611 230.538379 
L 204.016506 230.673548 
L 204.626453 230.386961 
L 205.2364 230.608502 
L 210.725925 230.610342 
L 211.335872 230.509152 
L 215.605502 230.658001 
L 216.825396 230.551236 
L 218.045291 230.628104 
L 219.875132 230.575707 
L 221.704974 230.627636 
L 229.634287 230.490486 
L 230.854181 230.60288 
L 234.513864 230.622832 
L 235.733758 230.522473 
L 238.173547 230.610074 
L 243.053124 230.546117 
L 244.273019 230.534392 
L 246.712807 230.564396 
L 270.500747 230.533812 
L 272.940536 230.544434 
L 292.458845 230.550826 
L 306.48763 230.54928 
L 320.516415 230.557293 
L 373.581818 230.556179 
L 373.581818 230.556179 
" clip-path="url(#pb2f5706094)" style="fill: none; stroke-dasharray: 9.6,2.4,1.5,2.4; stroke-dashoffset: 0; stroke: #d62728; stroke-width: 1.5"/>
   </g>
   <g id="line2d_29">
    <path d="M 69.218182 205.470439 
L 69.828129 201.460402 
L 70.438076 218.825243 
L 71.048023 223.755284 
L 71.65797 221.755653 
L 72.267918 226.940829 
L 72.877865 207.730169 
L 73.487812 224.21858 
L 74.097759 217.318606 
L 74.707706 225.073384 
L 75.317653 225.320247 
L 75.927601 224.493258 
L 76.537548 221.098487 
L 77.147495 222.456511 
L 77.757442 220.503473 
L 78.367389 226.754541 
L 78.977336 227.406046 
L 79.587284 224.634199 
L 80.197231 225.332833 
L 80.807178 227.170229 
L 81.417125 226.853077 
L 82.027072 219.760318 
L 82.637019 225.116775 
L 83.246967 222.32684 
L 83.856914 226.87841 
L 84.466861 227.311377 
L 85.076808 228.874892 
L 85.686755 227.2278 
L 86.296702 227.813754 
L 86.90665 227.972838 
L 87.516597 216.902888 
L 88.126544 228.320589 
L 88.736491 228.43979 
L 89.346438 225.124122 
L 89.956385 223.561152 
L 90.566333 231.088122 
L 91.17628 220.424745 
L 91.786227 227.106584 
L 92.396174 221.832208 
L 93.006121 229.477076 
L 93.616069 217.580417 
L 94.226016 230.302192 
L 94.835963 228.120588 
L 95.44591 228.779332 
L 96.055857 226.401732 
L 96.665804 226.997937 
L 97.275752 230.183569 
L 97.885699 230.514624 
L 98.495646 227.82837 
L 99.105593 223.401908 
L 99.71554 231.03483 
L 100.325487 229.159149 
L 100.935435 230.417702 
L 101.545382 225.19941 
L 102.155329 223.572735 
L 102.765276 230.424489 
L 103.375223 228.340063 
L 103.98517 228.49855 
L 104.595118 230.914392 
L 105.205065 230.52142 
L 105.815012 230.717216 
L 106.424959 228.798641 
L 107.034906 223.139437 
L 107.644853 231.316706 
L 108.254801 223.406266 
L 108.864748 227.884547 
L 109.474695 227.949247 
L 110.084642 230.498273 
L 110.694589 228.058427 
L 111.304536 230.220602 
L 111.914484 227.225027 
L 112.524431 230.673807 
L 113.134378 227.671538 
L 113.744325 230.898469 
L 114.354272 230.443496 
L 114.964219 229.623911 
L 115.574167 230.641773 
L 116.794061 228.771838 
L 117.404008 229.823656 
L 118.013955 227.699936 
L 118.623902 230.564741 
L 119.23385 231.066768 
L 119.843797 229.746034 
L 120.453744 230.510589 
L 121.063691 228.241576 
L 121.673638 229.938663 
L 122.283585 229.090221 
L 122.893533 229.26016 
L 123.50348 230.235236 
L 124.723374 230.389326 
L 125.333321 230.616269 
L 125.943268 230.112735 
L 126.553216 229.263405 
L 127.163163 230.728195 
L 128.383057 230.551155 
L 128.993004 230.156527 
L 129.602951 230.422203 
L 130.212899 230.387507 
L 130.822846 228.924326 
L 131.432793 228.869066 
L 132.04274 230.40465 
L 132.652687 230.632024 
L 133.262634 229.44352 
L 133.872582 229.793891 
L 134.482529 229.83719 
L 135.092476 230.219862 
L 135.702423 229.905694 
L 136.31237 230.442395 
L 136.922317 228.629746 
L 137.532265 230.28271 
L 138.142212 230.488586 
L 138.752159 230.139784 
L 139.362106 229.523868 
L 139.972053 230.476545 
L 140.582 229.669745 
L 141.191948 230.391142 
L 141.801895 230.107028 
L 142.411842 230.564408 
L 143.631736 230.496159 
L 144.241683 229.608918 
L 144.851631 230.716605 
L 145.461578 230.932558 
L 146.071525 231.000567 
L 146.681472 230.738557 
L 147.291419 230.95972 
L 147.901366 230.779295 
L 148.511314 230.254653 
L 149.121261 231.032768 
L 149.731208 230.525032 
L 150.341155 230.523014 
L 150.951102 230.655226 
L 151.561049 230.261495 
L 152.170997 230.652924 
L 152.780944 229.974971 
L 153.390891 230.470798 
L 154.610785 230.652613 
L 155.220732 230.636978 
L 155.83068 230.920925 
L 156.440627 230.357184 
L 158.270468 230.792582 
L 159.490363 230.368432 
L 160.710257 230.811622 
L 162.540098 230.727043 
L 163.150046 230.802672 
L 163.759993 230.46919 
L 164.36994 230.408579 
L 166.199781 230.60362 
L 166.809729 230.460295 
L 167.419676 230.163148 
L 168.029623 230.259369 
L 168.63957 230.678328 
L 169.249517 230.699519 
L 169.859464 230.252512 
L 170.469412 230.664642 
L 171.079359 230.563281 
L 172.299253 230.65797 
L 173.519147 230.779735 
L 174.129095 230.488784 
L 174.739042 230.540544 
L 175.348989 230.798633 
L 175.958936 230.666018 
L 176.568883 230.786085 
L 177.17883 230.735728 
L 177.788778 230.524385 
L 178.398725 230.719884 
L 179.008672 230.337174 
L 179.618619 230.370354 
L 180.228566 230.676581 
L 182.058408 230.747627 
L 182.668355 230.583505 
L 184.498196 230.437096 
L 185.108144 230.727682 
L 188.767827 230.545092 
L 189.377774 230.696697 
L 190.597668 230.444185 
L 192.42751 230.574742 
L 193.037457 230.262971 
L 194.257351 230.662451 
L 195.477245 230.495213 
L 196.087193 230.583719 
L 196.69714 230.520597 
L 197.307087 230.662088 
L 198.526981 230.613797 
L 199.746876 230.720529 
L 201.576717 230.593433 
L 202.186664 230.700592 
L 202.796611 230.538379 
L 204.016506 230.673548 
L 204.626453 230.386961 
L 205.2364 230.608502 
L 210.725925 230.610342 
L 211.335872 230.509152 
L 215.605502 230.658001 
L 216.825396 230.551236 
L 218.045291 230.628104 
L 219.875132 230.575707 
L 221.704974 230.627636 
L 229.634287 230.490486 
L 230.854181 230.60288 
L 234.513864 230.622832 
L 235.733758 230.522473 
L 238.173547 230.610074 
L 243.053124 230.546117 
L 244.273019 230.534392 
L 246.712807 230.564396 
L 270.500747 230.533812 
L 272.940536 230.544434 
L 292.458845 230.550826 
L 306.48763 230.54928 
L 320.516415 230.557293 
L 373.581818 230.556179 
L 373.581818 230.556179 
" clip-path="url(#pb2f5706094)" style="fill: none; stroke-dasharray: 9.6,2.4,1.5,2.4; stroke-dashoffset: 0; stroke: #9467bd; stroke-width: 1.5"/>
   </g>
   <g id="line2d_30">
    <path d="M 70.278258 289 
L 70.438076 259.97507 
L 71.048023 221.088726 
L 71.65797 222.805279 
L 72.267918 200.201039 
L 72.737545 289 
M 73.053566 289 
L 73.487812 223.425068 
L 74.097759 268.874021 
L 74.707706 208.21541 
L 75.317653 215.11611 
L 75.927601 213.396086 
L 76.537548 248.125822 
L 77.147495 231.350553 
L 77.757442 248.776281 
L 78.367389 208.99039 
L 78.977336 197.099009 
L 79.587284 225.89639 
L 80.197231 220.556937 
L 80.807178 200.513411 
L 81.417125 201.498618 
L 82.027072 253.515585 
L 82.637019 209.482471 
L 83.246967 238.123412 
L 83.856914 204.703466 
L 84.466861 206.062189 
L 85.076808 186.707058 
L 85.686755 205.561008 
L 86.296702 196.833173 
L 86.90665 196.263748 
L 87.516597 266.677922 
L 88.126544 198.130086 
L 88.736491 199.313761 
L 89.346438 219.716756 
L 89.956385 231.573447 
L 90.566333 179.235093 
L 91.17628 241.565877 
L 91.786227 206.795788 
L 92.396174 234.307311 
L 93.006121 191.950789 
L 93.616069 271.879793 
L 94.226016 188.289509 
L 94.835963 205.084673 
L 95.44591 197.474144 
L 96.055857 213.090786 
L 96.665804 203.187626 
L 97.275752 188.618083 
L 97.885699 184.374387 
L 98.495646 204.72644 
L 99.105593 217.480486 
L 99.71554 180.937666 
L 100.325487 194.182145 
L 100.935435 186.416772 
L 101.545382 215.732323 
L 102.155329 231.652652 
L 102.765276 188.069669 
L 103.375223 200.322086 
L 103.98517 198.256673 
L 104.595118 181.391615 
L 105.205065 185.640233 
L 105.815012 185.849736 
L 106.424959 196.152114 
L 107.034906 231.456134 
L 107.644853 181.891518 
L 108.254801 229.956994 
L 108.864748 202.671434 
L 109.474695 199.11151 
L 110.084642 184.658773 
L 110.694589 201.812277 
L 111.304536 188.3701 
L 111.914484 199.533889 
L 112.524431 184.260088 
L 113.134378 203.365778 
L 113.744325 183.577192 
L 114.354272 187.325517 
L 114.964219 191.806456 
L 115.574167 183.969741 
L 116.794061 198.902248 
L 117.404008 192.060063 
L 118.013955 200.531847 
L 118.623902 186.715277 
L 119.23385 181.777501 
L 119.843797 195.076687 
L 120.453744 186.63259 
L 121.063691 199.839238 
L 121.673638 189.611298 
L 122.283585 197.43214 
L 123.50348 187.061122 
L 124.113427 187.633915 
L 125.333321 185.560356 
L 125.943268 187.832696 
L 126.553216 191.447722 
L 127.163163 184.525137 
L 127.77311 185.286416 
L 128.383057 185.365369 
L 128.993004 188.540751 
L 129.602951 186.065206 
L 130.212899 187.167059 
L 130.822846 193.172392 
L 131.432793 194.768475 
L 132.04274 186.709147 
L 132.652687 185.519211 
L 133.262634 194.050389 
L 133.872582 191.079833 
L 134.482529 190.819448 
L 135.092476 187.162791 
L 135.702423 189.422254 
L 136.31237 184.904216 
L 136.922317 197.095563 
L 137.532265 187.944252 
L 138.142212 186.542303 
L 139.362106 191.164087 
L 139.972053 185.54808 
L 140.582 189.835082 
L 141.191948 186.917551 
L 141.801895 188.152097 
L 142.411842 185.666053 
L 143.021789 185.225142 
L 143.631736 186.136805 
L 144.241683 191.721914 
L 144.851631 184.090674 
L 145.461578 183.421639 
L 146.071525 182.491829 
L 146.681472 184.695968 
L 147.291419 183.182469 
L 147.901366 184.575365 
L 148.511314 187.648754 
L 149.121261 182.976316 
L 149.731208 185.918358 
L 150.341155 186.206999 
L 150.951102 185.340786 
L 151.561049 186.973344 
L 152.170997 184.570599 
L 152.780944 188.601424 
L 153.390891 186.263596 
L 154.000838 184.718672 
L 154.610785 185.032514 
L 155.220732 185.05167 
L 155.83068 183.366777 
L 156.440627 186.766681 
L 158.270468 184.207573 
L 158.880415 184.846628 
L 159.490363 186.980896 
L 160.10031 185.844645 
L 160.710257 184.05265 
L 161.320204 184.724243 
L 161.930151 185.225442 
L 162.540098 184.327917 
L 163.150046 184.478493 
L 163.759993 186.334883 
L 164.36994 186.783448 
L 164.979887 186.069114 
L 165.589834 185.581685 
L 166.199781 185.729019 
L 166.809729 186.233449 
L 167.419676 188.804305 
L 168.029623 187.647566 
L 168.63957 185.254197 
L 169.249517 184.962026 
L 169.859464 187.9148 
L 170.469412 185.374211 
L 171.079359 185.725315 
L 171.689306 185.203129 
L 172.9092 185.316672 
L 173.519147 184.598333 
L 174.129095 186.455822 
L 174.739042 185.942898 
L 175.348989 184.644707 
L 175.958936 185.319055 
L 176.568883 184.301972 
L 177.17883 184.585355 
L 177.788778 185.884566 
L 178.398725 184.687684 
L 179.008672 187.110227 
L 179.618619 187.037079 
L 180.228566 185.055626 
L 181.448461 185.110279 
L 182.058408 184.627869 
L 182.668355 185.693679 
L 183.278302 185.885442 
L 183.888249 185.431223 
L 184.498196 186.483022 
L 185.108144 184.961335 
L 186.328038 184.782767 
L 186.937985 184.812212 
L 187.547932 185.651471 
L 188.157879 186.073148 
L 188.767827 185.918159 
L 189.377774 184.817735 
L 189.987721 186.001795 
L 190.597668 186.450719 
L 191.207615 186.139068 
L 191.817562 185.336056 
L 192.42751 185.617722 
L 193.037457 187.586232 
L 194.257351 185.273107 
L 194.867298 186.156999 
L 195.477245 186.160955 
L 196.087193 185.762187 
L 196.69714 185.99342 
L 197.307087 185.205932 
L 197.917034 185.474722 
L 198.526981 185.38605 
L 199.136928 184.911924 
L 199.746876 184.888464 
L 200.356823 185.070808 
L 200.96677 185.001232 
L 201.576717 185.623395 
L 202.186664 184.84317 
L 202.796611 186.038744 
L 203.406559 185.730472 
L 204.016506 185.209654 
L 204.626453 186.784919 
L 205.2364 185.545906 
L 205.846347 185.455013 
L 206.456294 185.717529 
L 207.676189 185.576282 
L 208.286136 185.788936 
L 208.896083 185.595828 
L 209.50603 185.243314 
L 210.115977 185.573803 
L 210.725925 185.574703 
L 211.335872 186.166364 
L 211.945819 185.86508 
L 212.555766 185.974727 
L 213.165713 185.574073 
L 214.995555 185.46089 
L 215.605502 185.224854 
L 216.215449 185.801291 
L 216.825396 185.916839 
L 217.435343 185.349737 
L 218.655238 185.593931 
L 219.265185 185.88094 
L 219.875132 185.801441 
L 220.485079 185.448254 
L 221.095026 185.786355 
L 221.704974 185.381853 
L 222.924868 185.5146 
L 223.534815 186.090659 
L 224.144762 185.603266 
L 224.754709 185.517752 
L 225.364657 185.763375 
L 225.974604 185.399953 
L 226.584551 185.304779 
L 227.194498 185.672776 
L 227.804445 185.868796 
L 228.414392 185.611196 
L 229.02434 185.720981 
L 229.634287 186.201854 
L 230.244234 185.578539 
L 231.464128 185.517272 
L 232.074075 185.961826 
L 232.684023 185.597503 
L 233.903917 185.716347 
L 234.513864 185.364372 
L 235.123811 185.960229 
L 235.733758 185.979937 
L 236.343706 185.685683 
L 239.393441 185.44425 
L 240.003389 185.794681 
L 240.613336 185.539819 
L 241.223283 185.80799 
L 242.443177 185.729596 
L 243.053124 185.876126 
L 243.663072 185.567884 
L 244.273019 185.945726 
L 244.882966 185.722044 
L 246.10286 185.836673 
L 247.322755 185.76801 
L 247.932702 186.006987 
L 248.542649 185.817163 
L 249.152596 185.914407 
L 249.762543 185.874727 
L 250.37249 185.606976 
L 251.592385 185.83375 
L 252.202332 185.712637 
L 252.812279 186.048895 
L 253.422226 185.731499 
L 257.081909 185.771365 
L 258.911751 186.076588 
L 259.521698 185.789993 
L 260.131645 185.955733 
L 260.741592 185.764414 
L 261.961487 185.904418 
L 262.571434 185.711514 
L 263.181381 185.689447 
L 263.791328 185.902737 
L 264.401275 185.705619 
L 265.62117 185.86074 
L 266.231117 185.699856 
L 269.280853 185.836067 
L 274.770377 185.785425 
L 276.600219 185.876642 
L 277.210166 185.798037 
L 277.820113 185.844003 
L 278.43006 185.74934 
L 280.259902 185.834758 
L 281.479796 185.71496 
L 283.309637 185.85302 
L 285.139479 185.709893 
L 292.458845 185.781715 
L 293.678739 185.759761 
L 294.898634 185.633846 
L 298.558317 185.758351 
L 299.778211 185.746831 
L 300.998105 185.749106 
L 317.466679 185.735983 
L 320.516415 185.734296 
L 326.005939 185.712895 
L 336.375041 185.760043 
L 341.254618 185.766593 
L 346.134196 185.776312 
L 373.581818 185.744669 
L 373.581818 185.744669 
" clip-path="url(#pb2f5706094)" style="fill: none; stroke: #8c564b; stroke-width: 1.5; stroke-linecap: square"/>
   </g>
   <g id="line2d_31">
    <path d="M 69.218182 50.568998 
L 78.367389 50.568998 
L 78.977336 90.855198 
L 96.665804 90.855198 
L 97.275752 123.084156 
L 102.765276 123.084156 
L 103.375223 148.867323 
L 113.744325 148.867323 
L 114.354272 169.49386 
L 119.843797 169.49386 
L 120.453744 185.995089 
L 125.943268 185.995089 
L 126.553216 199.196073 
L 132.04274 199.196073 
L 132.652687 209.75686 
L 138.142212 209.75686 
L 138.752159 218.205489 
L 144.241683 218.205489 
L 144.851631 224.96439 
L 150.341155 224.96439 
L 150.951102 230.371513 
L 156.440627 230.371513 
L 157.050574 234.69721 
L 162.540098 234.69721 
L 163.150046 238.157768 
L 168.63957 238.157768 
L 169.249517 240.926214 
L 174.739042 240.926214 
L 175.348989 243.140971 
L 180.838513 243.140971 
L 181.448461 244.912777 
L 186.937985 244.912777 
L 187.547932 246.330221 
L 193.037457 246.330221 
L 193.647404 247.464177 
L 199.136928 247.464177 
L 199.746876 248.371342 
L 205.2364 248.371342 
L 205.846347 249.097073 
L 211.335872 249.097073 
L 211.945819 249.677659 
L 217.435343 249.677659 
L 218.045291 250.142127 
L 223.534815 250.142127 
L 224.144762 250.513702 
L 229.634287 250.513702 
L 230.244234 250.810961 
L 235.733758 250.810961 
L 236.343706 251.048769 
L 241.83323 251.048769 
L 242.443177 251.239015 
L 247.932702 251.239015 
L 248.542649 251.391212 
L 254.032173 251.391212 
L 254.642121 251.51297 
L 266.231117 251.610376 
L 267.451011 251.688301 
L 278.43006 251.750641 
L 280.259902 251.800512 
L 302.827947 251.897862 
L 306.48763 251.91829 
L 373.581818 251.992981 
L 373.581818 251.992981 
" clip-path="url(#pb2f5706094)" style="fill: none; stroke-dasharray: 1.5,2.475; stroke-dashoffset: 0; stroke: #e377c2; stroke-width: 1.5"/>
   </g>
   <g id="patch_3">
    <path d="M 54 252 
L 54 34.56 
" style="fill: none; stroke: #000000; stroke-width: 0.8; stroke-linejoin: miter; stroke-linecap: square"/>
   </g>
   <g id="patch_4">
    <path d="M 388.8 252 
L 388.8 34.56 
" style="fill: none; stroke: #000000; stroke-width: 0.8; stroke-linejoin: miter; stroke-linecap: square"/>
   </g>
   <g id="patch_5">
    <path d="M 54 252 
L 388.8 252 
" style="fill: none; stroke: #000000; stroke-width: 0.8; stroke-linejoin: miter; stroke-linecap: square"/>
   </g>
   <g id="patch_6">
    <path d="M 54 34.56 
L 388.8 34.56 
" style="fill: none; stroke: #000000; stroke-width: 0.8; stroke-linejoin: miter; stroke-linecap: square"/>
   </g>
   <g id="text_14">
    <!-- Learning Curve of Defect Prob. Model -->
    <g transform="translate(109.31625 15.122625)scale(0.12 -0.12)">
     <defs>
      <path id="DejaVuSans-4c" d="M 628 4666 
L 1259 4666 
L 1259 531 
L 3531 531 
L 3531 0 
L 628 0 
L 628 4666 
z
" transform="scale(0.015625)"/>
      <path id="DejaVuSans-65" d="M 3597 1894 
L 3597 1613 
L 953 1613 
Q 991 1019 1311 708 
Q 1631 397 2203 397 
Q 2534 397 2845 478 
Q 3156 559 3463 722 
L 3463 178 
Q 3153 47 2828 -22 
Q 2503 -91 2169 -91 
Q 1331 -91 842 396 
Q 353 884 353 1716 
Q 353 2575 817 3079 
Q 1281 3584 2069 3584 
Q 2775 3584 3186 3129 
Q 3597 2675 3597 1894 
z
M 3022 2063 
Q 3016 2534 2758 2815 
Q 2500 3097 2075 3097 
Q 1594 3097 1305 2825 
Q 1016 2553 972 2059 
L 3022 2063 
z
" transform="scale(0.015625)"/>
      <path id="DejaVuSans-61" d="M 2194 1759 
Q 1497 1759 1228 1600 
Q 959 1441 959 1056 
Q 959 750 1161 570 
Q 1363 391 1709 391 
Q 2188 391 2477 730 
Q 2766 1069 2766 1631 
L 2766 1759 
L 2194 1759 
z
M 3341 1997 
L 3341 0 
L 2766 0 
L 2766 531 
Q 2569 213 2275 61 
Q 1981 -91 1556 -91 
Q 1019 -91 701 211 
Q 384 513 384 1019 
Q 384 1609 779 1909 
Q 1175 2209 1959 2209 
L 2766 2209 
L 2766 2266 
Q 2766 2663 2505 2880 
Q 2244 3097 1772 3097 
Q 1472 3097 1187 3025 
Q 903 2953 641 2809 
L 641 3341 
Q 956 3463 1253 3523 
Q 1550 3584 1831 3584 
Q 2591 3584 2966 3190 
Q 3341 2797 3341 1997 
z
" transform="scale(0.015625)"/>
      <path id="DejaVuSans-72" d="M 2631 2963 
Q 2534 3019 2420 3045 
Q 2306 3072 2169 3072 
Q 1681 3072 1420 2755 
Q 1159 2438 1159 1844 
L 1159 0 
L 581 0 
L 581 3500 
L 1159 3500 
L 1159 2956 
Q 1341 3275 1631 3429 
Q 1922 3584 2338 3584 
Q 2397 3584 2469 3576 
Q 2541 3569 2628 3553 
L 2631 2963 
z
" transform="scale(0.015625)"/>
      <path id="DejaVuSans-6e" d="M 3513 2113 
L 3513 0 
L 2938 0 
L 2938 2094 
Q 2938 2591 2744 2837 
Q 2550 3084 2163 3084 
Q 1697 3084 1428 2787 
Q 1159 2491 1159 1978 
L 1159 0 
L 581 0 
L 581 3500 
L 1159 3500 
L 1159 2956 
Q 1366 3272 1645 3428 
Q 1925 3584 2291 3584 
Q 2894 3584 3203 3211 
Q 3513 2838 3513 2113 
z
" transform="scale(0.015625)"/>
      <path id="DejaVuSans-69" d="M 603 3500 
L 1178 3500 
L 1178 0 
L 603 0 
L 603 3500 
z
M 603 4863 
L 1178 4863 
L 1178 4134 
L 603 4134 
L 603 4863 
z
" transform="scale(0.015625)"/>
      <path id="DejaVuSans-67" d="M 2906 1791 
Q 2906 2416 2648 2759 
Q 2391 3103 1925 3103 
Q 1463 3103 1205 2759 
Q 947 2416 947 1791 
Q 947 1169 1205 825 
Q 1463 481 1925 481 
Q 2391 481 2648 825 
Q 2906 1169 2906 1791 
z
M 3481 434 
Q 3481 -459 3084 -895 
Q 2688 -1331 1869 -1331 
Q 1566 -1331 1297 -1286 
Q 1028 -1241 775 -1147 
L 775 -588 
Q 1028 -725 1275 -790 
Q 1522 -856 1778 -856 
Q 2344 -856 2625 -561 
Q 2906 -266 2906 331 
L 2906 616 
Q 2728 306 2450 153 
Q 2172 0 1784 0 
Q 1141 0 747 490 
Q 353 981 353 1791 
Q 353 2603 747 3093 
Q 1141 3584 1784 3584 
Q 2172 3584 2450 3431 
Q 2728 3278 2906 2969 
L 2906 3500 
L 3481 3500 
L 3481 434 
z
" transform="scale(0.015625)"/>
      <path id="DejaVuSans-20" transform="scale(0.015625)"/>
      <path id="DejaVuSans-43" d="M 4122 4306 
L 4122 3641 
Q 3803 3938 3442 4084 
Q 3081 4231 2675 4231 
Q 1875 4231 1450 3742 
Q 1025 3253 1025 2328 
Q 1025 1406 1450 917 
Q 1875 428 2675 428 
Q 3081 428 3442 575 
Q 3803 722 4122 1019 
L 4122 359 
Q 3791 134 3420 21 
Q 3050 -91 2638 -91 
Q 1578 -91 968 557 
Q 359 1206 359 2328 
Q 359 3453 968 4101 
Q 1578 4750 2638 4750 
Q 3056 4750 3426 4639 
Q 3797 4528 4122 4306 
z
" transform="scale(0.015625)"/>
      <path id="DejaVuSans-75" d="M 544 1381 
L 544 3500 
L 1119 3500 
L 1119 1403 
Q 1119 906 1312 657 
Q 1506 409 1894 409 
Q 2359 409 2629 706 
Q 2900 1003 2900 1516 
L 2900 3500 
L 3475 3500 
L 3475 0 
L 2900 0 
L 2900 538 
Q 2691 219 2414 64 
Q 2138 -91 1772 -91 
Q 1169 -91 856 284 
Q 544 659 544 1381 
z
M 1991 3584 
L 1991 3584 
z
" transform="scale(0.015625)"/>
      <path id="DejaVuSans-76" d="M 191 3500 
L 800 3500 
L 1894 563 
L 2988 3500 
L 3597 3500 
L 2284 0 
L 1503 0 
L 191 3500 
z
" transform="scale(0.015625)"/>
      <path id="DejaVuSans-66" d="M 2375 4863 
L 2375 4384 
L 1825 4384 
Q 1516 4384 1395 4259 
Q 1275 4134 1275 3809 
L 1275 3500 
L 2222 3500 
L 2222 3053 
L 1275 3053 
L 1275 0 
L 697 0 
L 697 3053 
L 147 3053 
L 147 3500 
L 697 3500 
L 697 3744 
Q 697 4328 969 4595 
Q 1241 4863 1831 4863 
L 2375 4863 
z
" transform="scale(0.015625)"/>
      <path id="DejaVuSans-44" d="M 1259 4147 
L 1259 519 
L 2022 519 
Q 2988 519 3436 956 
Q 3884 1394 3884 2338 
Q 3884 3275 3436 3711 
Q 2988 4147 2022 4147 
L 1259 4147 
z
M 628 4666 
L 1925 4666 
Q 3281 4666 3915 4102 
Q 4550 3538 4550 2338 
Q 4550 1131 3912 565 
Q 3275 0 1925 0 
L 628 0 
L 628 4666 
z
" transform="scale(0.015625)"/>
      <path id="DejaVuSans-74" d="M 1172 4494 
L 1172 3500 
L 2356 3500 
L 2356 3053 
L 1172 3053 
L 1172 1153 
Q 1172 725 1289 603 
Q 1406 481 1766 481 
L 2356 481 
L 2356 0 
L 1766 0 
Q 1100 0 847 248 
Q 594 497 594 1153 
L 594 3053 
L 172 3053 
L 172 3500 
L 594 3500 
L 594 4494 
L 1172 4494 
z
" transform="scale(0.015625)"/>
      <path id="DejaVuSans-50" d="M 1259 4147 
L 1259 2394 
L 2053 2394 
Q 2494 2394 2734 2622 
Q 2975 2850 2975 3272 
Q 2975 3691 2734 3919 
Q 2494 4147 2053 4147 
L 1259 4147 
z
M 628 4666 
L 2053 4666 
Q 2838 4666 3239 4311 
Q 3641 3956 3641 3272 
Q 3641 2581 3239 2228 
Q 2838 1875 2053 1875 
L 1259 1875 
L 1259 0 
L 628 0 
L 628 4666 
z
" transform="scale(0.015625)"/>
      <path id="DejaVuSans-62" d="M 3116 1747 
Q 3116 2381 2855 2742 
Q 2594 3103 2138 3103 
Q 1681 3103 1420 2742 
Q 1159 2381 1159 1747 
Q 1159 1113 1420 752 
Q 1681 391 2138 391 
Q 2594 391 2855 752 
Q 3116 1113 3116 1747 
z
M 1159 2969 
Q 1341 3281 1617 3432 
Q 1894 3584 2278 3584 
Q 2916 3584 3314 3078 
Q 3713 2572 3713 1747 
Q 3713 922 3314 415 
Q 2916 -91 2278 -91 
Q 1894 -91 1617 61 
Q 1341 213 1159 525 
L 1159 0 
L 581 0 
L 581 4863 
L 1159 4863 
L 1159 2969 
z
" transform="scale(0.015625)"/>
      <path id="DejaVuSans-4d" d="M 628 4666 
L 1569 4666 
L 2759 1491 
L 3956 4666 
L 4897 4666 
L 4897 0 
L 4281 0 
L 4281 4097 
L 3078 897 
L 2444 897 
L 1241 4097 
L 1241 0 
L 628 0 
L 628 4666 
z
" transform="scale(0.015625)"/>
      <path id="DejaVuSans-64" d="M 2906 2969 
L 2906 4863 
L 3481 4863 
L 3481 0 
L 2906 0 
L 2906 525 
Q 2725 213 2448 61 
Q 2172 -91 1784 -91 
Q 1150 -91 751 415 
Q 353 922 353 1747 
Q 353 2572 751 3078 
Q 1150 3584 1784 3584 
Q 2172 3584 2448 3432 
Q 2725 3281 2906 2969 
z
M 947 1747 
Q 947 1113 1208 752 
Q 1469 391 1925 391 
Q 2381 391 2643 752 
Q 2906 1113 2906 1747 
Q 2906 2381 2643 2742 
Q 2381 3103 1925 3103 
Q 1469 3103 1208 2742 
Q 947 2381 947 1747 
z
" transform="scale(0.015625)"/>
      <path id="DejaVuSans-6c" d="M 603 4863 
L 1178 4863 
L 1178 0 
L 603 0 
L 603 4863 
z
" transform="scale(0.015625)"/>
     </defs>
     <use xlink:href="#DejaVuSans-4c"/>
     <use xlink:href="#DejaVuSans-65" x="53.962891"/>
     <use xlink:href="#DejaVuSans-61" x="115.486328"/>
     <use xlink:href="#DejaVuSans-72" x="176.765625"/>
     <use xlink:href="#DejaVuSans-6e" x="216.128906"/>
     <use xlink:href="#DejaVuSans-69" x="279.507812"/>
     <use xlink:href="#DejaVuSans-6e" x="307.291016"/>
     <use xlink:href="#DejaVuSans-67" x="370.669922"/>
     <use xlink:href="#DejaVuSans-20" x="434.146484"/>
     <use xlink:href="#DejaVuSans-43" x="465.933594"/>
     <use xlink:href="#DejaVuSans-75" x="535.757812"/>
     <use xlink:href="#DejaVuSans-72" x="599.136719"/>
     <use xlink:href="#DejaVuSans-76" x="640.25"/>
     <use xlink:href="#DejaVuSans-65" x="699.429688"/>
     <use xlink:href="#DejaVuSans-20" x="760.953125"/>
     <use xlink:href="#DejaVuSans-6f" x="792.740234"/>
     <use xlink:href="#DejaVuSans-66" x="853.921875"/>
     <use xlink:href="#DejaVuSans-20" x="889.126953"/>
     <use xlink:href="#DejaVuSans-44" x="920.914062"/>
     <use xlink:href="#DejaVuSans-65" x="997.916016"/>
     <use xlink:href="#DejaVuSans-66" x="1059.439453"/>
     <use xlink:href="#DejaVuSans-65" x="1094.644531"/>
     <use xlink:href="#DejaVuSans-63" x="1156.167969"/>
     <use xlink:href="#DejaVuSans-74" x="1211.148438"/>
     <use xlink:href="#DejaVuSans-20" x="1250.357422"/>
     <use xlink:href="#DejaVuSans-50" x="1282.144531"/>
     <use xlink:href="#DejaVuSans-72" x="1340.697266"/>
     <use xlink:href="#DejaVuSans-6f" x="1379.560547"/>
     <use xlink:href="#DejaVuSans-62" x="1440.742188"/>
     <use xlink:href="#DejaVuSans-2e" x="1504.21875"/>
     <use xlink:href="#DejaVuSans-20" x="1536.005859"/>
     <use xlink:href="#DejaVuSans-4d" x="1567.792969"/>
     <use xlink:href="#DejaVuSans-6f" x="1654.072266"/>
     <use xlink:href="#DejaVuSans-64" x="1715.253906"/>
     <use xlink:href="#DejaVuSans-65" x="1778.730469"/>
     <use xlink:href="#DejaVuSans-6c" x="1840.253906"/>
    </g>
    <!-- (LR=adaptive, ARCH=v3) -->
    <g transform="translate(145.058438 28.56)scale(0.12 -0.12)">
     <defs>
      <path id="DejaVuSans-28" d="M 1984 4856 
Q 1566 4138 1362 3434 
Q 1159 2731 1159 2009 
Q 1159 1288 1364 580 
Q 1569 -128 1984 -844 
L 1484 -844 
Q 1016 -109 783 600 
Q 550 1309 550 2009 
Q 550 2706 781 3412 
Q 1013 4119 1484 4856 
L 1984 4856 
z
" transform="scale(0.015625)"/>
      <path id="DejaVuSans-52" d="M 2841 2188 
Q 3044 2119 3236 1894 
Q 3428 1669 3622 1275 
L 4263 0 
L 3584 0 
L 2988 1197 
Q 2756 1666 2539 1819 
Q 2322 1972 1947 1972 
L 1259 1972 
L 1259 0 
L 628 0 
L 628 4666 
L 2053 4666 
Q 2853 4666 3247 4331 
Q 3641 3997 3641 3322 
Q 3641 2881 3436 2590 
Q 3231 2300 2841 2188 
z
M 1259 4147 
L 1259 2491 
L 2053 2491 
Q 2509 2491 2742 2702 
Q 2975 2913 2975 3322 
Q 2975 3731 2742 3939 
Q 2509 4147 2053 4147 
L 1259 4147 
z
" transform="scale(0.015625)"/>
      <path id="DejaVuSans-3d" d="M 678 2906 
L 4684 2906 
L 4684 2381 
L 678 2381 
L 678 2906 
z
M 678 1631 
L 4684 1631 
L 4684 1100 
L 678 1100 
L 678 1631 
z
" transform="scale(0.015625)"/>
      <path id="DejaVuSans-2c" d="M 750 794 
L 1409 794 
L 1409 256 
L 897 -744 
L 494 -744 
L 750 256 
L 750 794 
z
" transform="scale(0.015625)"/>
      <path id="DejaVuSans-41" d="M 2188 4044 
L 1331 1722 
L 3047 1722 
L 2188 4044 
z
M 1831 4666 
L 2547 4666 
L 4325 0 
L 3669 0 
L 3244 1197 
L 1141 1197 
L 716 0 
L 50 0 
L 1831 4666 
z
" transform="scale(0.015625)"/>
      <path id="DejaVuSans-48" d="M 628 4666 
L 1259 4666 
L 1259 2753 
L 3553 2753 
L 3553 4666 
L 4184 4666 
L 4184 0 
L 3553 0 
L 3553 2222 
L 1259 2222 
L 1259 0 
L 628 0 
L 628 4666 
z
" transform="scale(0.015625)"/>
      <path id="DejaVuSans-29" d="M 513 4856 
L 1013 4856 
Q 1481 4119 1714 3412 
Q 1947 2706 1947 2009 
Q 1947 1309 1714 600 
Q 1481 -109 1013 -844 
L 513 -844 
Q 928 -128 1133 580 
Q 1338 1288 1338 2009 
Q 1338 2731 1133 3434 
Q 928 4138 513 4856 
z
" transform="scale(0.015625)"/>
     </defs>
     <use xlink:href="#DejaVuSans-28"/>
     <use xlink:href="#DejaVuSans-4c" x="39.013672"/>
     <use xlink:href="#DejaVuSans-52" x="94.726562"/>
     <use xlink:href="#DejaVuSans-3d" x="164.208984"/>
     <use xlink:href="#DejaVuSans-61" x="247.998047"/>
     <use xlink:href="#DejaVuSans-64" x="309.277344"/>
     <use xlink:href="#DejaVuSans-61" x="372.753906"/>
     <use xlink:href="#DejaVuSans-70" x="434.033203"/>
     <use xlink:href="#DejaVuSans-74" x="497.509766"/>
     <use xlink:href="#DejaVuSans-69" x="536.71875"/>
     <use xlink:href="#DejaVuSans-76" x="564.501953"/>
     <use xlink:href="#DejaVuSans-65" x="623.681641"/>
     <use xlink:href="#DejaVuSans-2c" x="685.205078"/>
     <use xlink:href="#DejaVuSans-20" x="716.992188"/>
     <use xlink:href="#DejaVuSans-41" x="748.779297"/>
     <use xlink:href="#DejaVuSans-52" x="817.1875"/>
     <use xlink:href="#DejaVuSans-43" x="881.669922"/>
     <use xlink:href="#DejaVuSans-48" x="951.494141"/>
     <use xlink:href="#DejaVuSans-3d" x="1026.689453"/>
     <use xlink:href="#DejaVuSans-76" x="1110.478516"/>
     <use xlink:href="#DejaVuSans-33" x="1169.658203"/>
     <use xlink:href="#DejaVuSans-29" x="1233.28125"/>
    </g>
   </g>
   <g id="legend_1">
    <g id="patch_7">
     <path d="M 223.0125 146.975625 
L 381.8 146.975625 
Q 383.8 146.975625 383.8 144.975625 
L 383.8 41.56 
Q 383.8 39.56 381.8 39.56 
L 223.0125 39.56 
Q 221.0125 39.56 221.0125 41.56 
L 221.0125 144.975625 
Q 221.0125 146.975625 223.0125 146.975625 
z
" style="fill: #ffffff; opacity: 0.8; stroke: #cccccc; stroke-linejoin: miter"/>
    </g>
    <g id="line2d_32">
     <path d="M 225.0125 47.658437 
L 235.0125 47.658437 
L 245.0125 47.658437 
" style="fill: none; stroke-dasharray: 9.6,2.4,1.5,2.4; stroke-dashoffset: 0; stroke: #1f77b4; stroke-width: 1.5"/>
    </g>
    <g id="text_15">
     <!-- loss -->
     <g transform="translate(253.0125 51.158437)scale(0.1 -0.1)">
      <defs>
       <path id="DejaVuSans-73" d="M 2834 3397 
L 2834 2853 
Q 2591 2978 2328 3040 
Q 2066 3103 1784 3103 
Q 1356 3103 1142 2972 
Q 928 2841 928 2578 
Q 928 2378 1081 2264 
Q 1234 2150 1697 2047 
L 1894 2003 
Q 2506 1872 2764 1633 
Q 3022 1394 3022 966 
Q 3022 478 2636 193 
Q 2250 -91 1575 -91 
Q 1294 -91 989 -36 
Q 684 19 347 128 
L 347 722 
Q 666 556 975 473 
Q 1284 391 1588 391 
Q 1994 391 2212 530 
Q 2431 669 2431 922 
Q 2431 1156 2273 1281 
Q 2116 1406 1581 1522 
L 1381 1569 
Q 847 1681 609 1914 
Q 372 2147 372 2553 
Q 372 3047 722 3315 
Q 1072 3584 1716 3584 
Q 2034 3584 2315 3537 
Q 2597 3491 2834 3397 
z
" transform="scale(0.015625)"/>
      </defs>
      <use xlink:href="#DejaVuSans-6c"/>
      <use xlink:href="#DejaVuSans-6f" x="27.783203"/>
      <use xlink:href="#DejaVuSans-73" x="88.964844"/>
      <use xlink:href="#DejaVuSans-73" x="141.064453"/>
     </g>
    </g>
    <g id="line2d_33">
     <path d="M 225.0125 62.336562 
L 235.0125 62.336562 
L 245.0125 62.336562 
" style="fill: none; stroke-dasharray: 9.6,2.4,1.5,2.4; stroke-dashoffset: 0; stroke: #ff7f0e; stroke-width: 1.5"/>
    </g>
    <g id="text_16">
     <!-- switch_prob_loss -->
     <g transform="translate(253.0125 65.836562)scale(0.1 -0.1)">
      <defs>
       <path id="DejaVuSans-77" d="M 269 3500 
L 844 3500 
L 1563 769 
L 2278 3500 
L 2956 3500 
L 3675 769 
L 4391 3500 
L 4966 3500 
L 4050 0 
L 3372 0 
L 2619 2869 
L 1863 0 
L 1184 0 
L 269 3500 
z
" transform="scale(0.015625)"/>
       <path id="DejaVuSans-5f" d="M 3263 -1063 
L 3263 -1509 
L -63 -1509 
L -63 -1063 
L 3263 -1063 
z
" transform="scale(0.015625)"/>
      </defs>
      <use xlink:href="#DejaVuSans-73"/>
      <use xlink:href="#DejaVuSans-77" x="52.099609"/>
      <use xlink:href="#DejaVuSans-69" x="133.886719"/>
      <use xlink:href="#DejaVuSans-74" x="161.669922"/>
      <use xlink:href="#DejaVuSans-63" x="200.878906"/>
      <use xlink:href="#DejaVuSans-68" x="255.859375"/>
      <use xlink:href="#DejaVuSans-5f" x="319.238281"/>
      <use xlink:href="#DejaVuSans-70" x="369.238281"/>
      <use xlink:href="#DejaVuSans-72" x="432.714844"/>
      <use xlink:href="#DejaVuSans-6f" x="471.578125"/>
      <use xlink:href="#DejaVuSans-62" x="532.759766"/>
      <use xlink:href="#DejaVuSans-5f" x="596.236328"/>
      <use xlink:href="#DejaVuSans-6c" x="646.236328"/>
      <use xlink:href="#DejaVuSans-6f" x="674.019531"/>
      <use xlink:href="#DejaVuSans-73" x="735.201172"/>
      <use xlink:href="#DejaVuSans-73" x="787.300781"/>
     </g>
    </g>
    <g id="line2d_34">
     <path d="M 225.0125 77.292812 
L 235.0125 77.292812 
L 245.0125 77.292812 
" style="fill: none; stroke-dasharray: 1.5,2.475; stroke-dashoffset: 0; stroke: #2ca02c; stroke-width: 1.5"/>
    </g>
    <g id="text_17">
     <!-- switch_prob_r2_score -->
     <g transform="translate(253.0125 80.792812)scale(0.1 -0.1)">
      <use xlink:href="#DejaVuSans-73"/>
      <use xlink:href="#DejaVuSans-77" x="52.099609"/>
      <use xlink:href="#DejaVuSans-69" x="133.886719"/>
      <use xlink:href="#DejaVuSans-74" x="161.669922"/>
      <use xlink:href="#DejaVuSans-63" x="200.878906"/>
      <use xlink:href="#DejaVuSans-68" x="255.859375"/>
      <use xlink:href="#DejaVuSans-5f" x="319.238281"/>
      <use xlink:href="#DejaVuSans-70" x="369.238281"/>
      <use xlink:href="#DejaVuSans-72" x="432.714844"/>
      <use xlink:href="#DejaVuSans-6f" x="471.578125"/>
      <use xlink:href="#DejaVuSans-62" x="532.759766"/>
      <use xlink:href="#DejaVuSans-5f" x="596.236328"/>
      <use xlink:href="#DejaVuSans-72" x="646.236328"/>
      <use xlink:href="#DejaVuSans-32" x="687.349609"/>
      <use xlink:href="#DejaVuSans-5f" x="750.972656"/>
      <use xlink:href="#DejaVuSans-73" x="800.972656"/>
      <use xlink:href="#DejaVuSans-63" x="853.072266"/>
      <use xlink:href="#DejaVuSans-6f" x="908.052734"/>
      <use xlink:href="#DejaVuSans-72" x="969.234375"/>
      <use xlink:href="#DejaVuSans-65" x="1008.097656"/>
     </g>
    </g>
    <g id="line2d_35">
     <path d="M 225.0125 92.249062 
L 235.0125 92.249062 
L 245.0125 92.249062 
" style="fill: none; stroke-dasharray: 9.6,2.4,1.5,2.4; stroke-dashoffset: 0; stroke: #d62728; stroke-width: 1.5"/>
    </g>
    <g id="text_18">
     <!-- val_loss -->
     <g transform="translate(253.0125 95.749062)scale(0.1 -0.1)">
      <use xlink:href="#DejaVuSans-76"/>
      <use xlink:href="#DejaVuSans-61" x="59.179688"/>
      <use xlink:href="#DejaVuSans-6c" x="120.458984"/>
      <use xlink:href="#DejaVuSans-5f" x="148.242188"/>
      <use xlink:href="#DejaVuSans-6c" x="198.242188"/>
      <use xlink:href="#DejaVuSans-6f" x="226.025391"/>
      <use xlink:href="#DejaVuSans-73" x="287.207031"/>
      <use xlink:href="#DejaVuSans-73" x="339.306641"/>
     </g>
    </g>
    <g id="line2d_36">
     <path d="M 225.0125 107.205312 
L 235.0125 107.205312 
L 245.0125 107.205312 
" style="fill: none; stroke-dasharray: 9.6,2.4,1.5,2.4; stroke-dashoffset: 0; stroke: #9467bd; stroke-width: 1.5"/>
    </g>
    <g id="text_19">
     <!-- val_switch_prob_loss -->
     <g transform="translate(253.0125 110.705312)scale(0.1 -0.1)">
      <use xlink:href="#DejaVuSans-76"/>
      <use xlink:href="#DejaVuSans-61" x="59.179688"/>
      <use xlink:href="#DejaVuSans-6c" x="120.458984"/>
      <use xlink:href="#DejaVuSans-5f" x="148.242188"/>
      <use xlink:href="#DejaVuSans-73" x="198.242188"/>
      <use xlink:href="#DejaVuSans-77" x="250.341797"/>
      <use xlink:href="#DejaVuSans-69" x="332.128906"/>
      <use xlink:href="#DejaVuSans-74" x="359.912109"/>
      <use xlink:href="#DejaVuSans-63" x="399.121094"/>
      <use xlink:href="#DejaVuSans-68" x="454.101562"/>
      <use xlink:href="#DejaVuSans-5f" x="517.480469"/>
      <use xlink:href="#DejaVuSans-70" x="567.480469"/>
      <use xlink:href="#DejaVuSans-72" x="630.957031"/>
      <use xlink:href="#DejaVuSans-6f" x="669.820312"/>
      <use xlink:href="#DejaVuSans-62" x="731.001953"/>
      <use xlink:href="#DejaVuSans-5f" x="794.478516"/>
      <use xlink:href="#DejaVuSans-6c" x="844.478516"/>
      <use xlink:href="#DejaVuSans-6f" x="872.261719"/>
      <use xlink:href="#DejaVuSans-73" x="933.443359"/>
      <use xlink:href="#DejaVuSans-73" x="985.542969"/>
     </g>
    </g>
    <g id="line2d_37">
     <path d="M 225.0125 122.161563 
L 235.0125 122.161563 
L 245.0125 122.161563 
" style="fill: none; stroke: #8c564b; stroke-width: 1.5; stroke-linecap: square"/>
    </g>
    <g id="text_20">
     <!-- val_switch_prob_r2_score -->
     <g transform="translate(253.0125 125.661563)scale(0.1 -0.1)">
      <use xlink:href="#DejaVuSans-76"/>
      <use xlink:href="#DejaVuSans-61" x="59.179688"/>
      <use xlink:href="#DejaVuSans-6c" x="120.458984"/>
      <use xlink:href="#DejaVuSans-5f" x="148.242188"/>
      <use xlink:href="#DejaVuSans-73" x="198.242188"/>
      <use xlink:href="#DejaVuSans-77" x="250.341797"/>
      <use xlink:href="#DejaVuSans-69" x="332.128906"/>
      <use xlink:href="#DejaVuSans-74" x="359.912109"/>
      <use xlink:href="#DejaVuSans-63" x="399.121094"/>
      <use xlink:href="#DejaVuSans-68" x="454.101562"/>
      <use xlink:href="#DejaVuSans-5f" x="517.480469"/>
      <use xlink:href="#DejaVuSans-70" x="567.480469"/>
      <use xlink:href="#DejaVuSans-72" x="630.957031"/>
      <use xlink:href="#DejaVuSans-6f" x="669.820312"/>
      <use xlink:href="#DejaVuSans-62" x="731.001953"/>
      <use xlink:href="#DejaVuSans-5f" x="794.478516"/>
      <use xlink:href="#DejaVuSans-72" x="844.478516"/>
      <use xlink:href="#DejaVuSans-32" x="885.591797"/>
      <use xlink:href="#DejaVuSans-5f" x="949.214844"/>
      <use xlink:href="#DejaVuSans-73" x="999.214844"/>
      <use xlink:href="#DejaVuSans-63" x="1051.314453"/>
      <use xlink:href="#DejaVuSans-6f" x="1106.294922"/>
      <use xlink:href="#DejaVuSans-72" x="1167.476562"/>
      <use xlink:href="#DejaVuSans-65" x="1206.339844"/>
     </g>
    </g>
    <g id="line2d_38">
     <path d="M 225.0125 137.117812 
L 235.0125 137.117812 
L 245.0125 137.117812 
" style="fill: none; stroke-dasharray: 1.5,2.475; stroke-dashoffset: 0; stroke: #e377c2; stroke-width: 1.5"/>
    </g>
    <g id="text_21">
     <!-- -1e4_learning_rate -->
     <g transform="translate(253.0125 140.617812)scale(0.1 -0.1)">
      <defs>
       <path id="DejaVuSans-2d" d="M 313 2009 
L 1997 2009 
L 1997 1497 
L 313 1497 
L 313 2009 
z
" transform="scale(0.015625)"/>
      </defs>
      <use xlink:href="#DejaVuSans-2d"/>
      <use xlink:href="#DejaVuSans-31" x="36.083984"/>
      <use xlink:href="#DejaVuSans-65" x="99.707031"/>
      <use xlink:href="#DejaVuSans-34" x="161.230469"/>
      <use xlink:href="#DejaVuSans-5f" x="224.853516"/>
      <use xlink:href="#DejaVuSans-6c" x="274.853516"/>
      <use xlink:href="#DejaVuSans-65" x="302.636719"/>
      <use xlink:href="#DejaVuSans-61" x="364.160156"/>
      <use xlink:href="#DejaVuSans-72" x="425.439453"/>
      <use xlink:href="#DejaVuSans-6e" x="464.802734"/>
      <use xlink:href="#DejaVuSans-69" x="528.181641"/>
      <use xlink:href="#DejaVuSans-6e" x="555.964844"/>
      <use xlink:href="#DejaVuSans-67" x="619.34375"/>
      <use xlink:href="#DejaVuSans-5f" x="682.820312"/>
      <use xlink:href="#DejaVuSans-72" x="732.820312"/>
      <use xlink:href="#DejaVuSans-61" x="773.933594"/>
      <use xlink:href="#DejaVuSans-74" x="835.212891"/>
      <use xlink:href="#DejaVuSans-65" x="874.421875"/>
     </g>
    </g>
   </g>
  </g>
 </g>
 <defs>
  <clipPath id="pb2f5706094">
   <rect x="54" y="34.56" width="334.8" height="217.44"/>
  </clipPath>
 </defs>
</svg>
